<?xml version="1.0" encoding="utf-8"?>
<!-- Generator: Adobe Illustrator 16.0.0, SVG Export Plug-In . SVG Version: 6.00 Build 0)  -->
<!DOCTYPE svg PUBLIC "-//W3C//DTD SVG 1.1//EN" "http://www.w3.org/Graphics/SVG/1.1/DTD/svg11.dtd">
<svg version="1.1" id="Layer_1" xmlns="http://www.w3.org/2000/svg" xmlns:xlink="http://www.w3.org/1999/xlink" x="0px" y="0px"
	 width="50px" height="100px" viewBox="0 0 50 100" enable-background="new 0 0 50 100" xml:space="preserve">
<g>
	<g>
		<path fill="#3D3535" d="M36.554,71.807c-0.701,0-1.271,0.572-1.271,1.276v1.242h2.546v-1.242
			C37.828,72.379,37.256,71.807,36.554,71.807z"/>
		<path fill="#3D3535" d="M40.087,65.753H9.913c-2.7,0-4.913,2.214-4.913,4.915v8.664c0,2.704,2.213,4.915,4.913,4.915h30.174
			c2.7,0,4.913-2.211,4.913-4.915v-8.664C45,67.967,42.787,65.753,40.087,65.753z M15.689,76.342l1.179,1.284l-2.042,1.531
			l-0.837-1.531c-0.123-0.219-0.316-0.647-0.588-1.284c-0.297,0.699-0.495,1.125-0.593,1.284l-0.849,1.531L9.86,77.626l1.269-1.284
			c0.357-0.353,0.704-0.655,1.046-0.904c-0.349-0.032-0.808-0.097-1.374-0.203l-1.757-0.286l0.815-2.393l1.576,0.717
			c0.166,0.075,0.579,0.311,1.236,0.701c-0.14-0.636-0.23-1.108-0.271-1.418l-0.224-1.713h2.503l-0.203,1.713
			c-0.044,0.417-0.142,0.89-0.285,1.418c0.289-0.145,0.479-0.241,0.569-0.293c0.316-0.177,0.561-0.298,0.725-0.377l1.577-0.748
			l0.781,2.393l-1.744,0.365c-0.319,0.061-0.792,0.101-1.421,0.124C15.105,75.771,15.439,76.07,15.689,76.342z M27.244,76.342
			l1.18,1.284l-2.041,1.53l-0.836-1.53c-0.124-0.219-0.317-0.647-0.587-1.284c-0.298,0.699-0.494,1.125-0.592,1.284l-0.851,1.53
			l-2.098-1.53l1.269-1.284c0.357-0.353,0.703-0.655,1.046-0.904c-0.348-0.032-0.808-0.097-1.374-0.203l-1.758-0.286l0.816-2.393
			l1.577,0.717c0.164,0.075,0.579,0.311,1.235,0.701c-0.144-0.636-0.234-1.108-0.272-1.418l-0.225-1.711h2.503l-0.203,1.711
			c-0.046,0.417-0.142,0.89-0.284,1.418c0.287-0.145,0.477-0.241,0.569-0.293c0.314-0.177,0.56-0.298,0.725-0.377l1.578-0.748
			l0.782,2.393l-1.745,0.365c-0.319,0.061-0.792,0.101-1.421,0.124C26.66,75.771,26.995,76.07,27.244,76.342z M40.191,78.511
			c0,0.526-0.432,0.957-0.958,0.957h-5.357c-0.526,0-0.957-0.431-0.957-0.957v-3.229c0-0.527,0.431-0.958,0.957-0.958h0.13v-1.242
			c0-1.407,1.143-2.552,2.548-2.552c1.406,0,2.551,1.144,2.551,2.552v1.242h0.129c0.524,0,0.958,0.431,0.958,0.958V78.511
			L40.191,78.511z"/>
	</g>
</g>
<path fill="#3D3535" d="M40.087,15.753H9.913c-2.7,0-4.913,2.214-4.913,4.915v8.664c0,2.704,2.213,4.915,4.913,4.915h30.174
	c2.7,0,4.913-2.211,4.913-4.915v-8.664C45,17.967,42.787,15.753,40.087,15.753z M15.689,26.342l1.179,1.284l-2.042,1.531
	l-0.837-1.531c-0.123-0.219-0.316-0.647-0.588-1.284c-0.297,0.699-0.495,1.125-0.593,1.284l-0.849,1.531L9.86,27.626l1.269-1.284
	c0.357-0.353,0.704-0.655,1.046-0.904c-0.349-0.032-0.808-0.097-1.374-0.203l-1.757-0.286l0.815-2.393l1.576,0.717
	c0.166,0.075,0.579,0.311,1.236,0.701c-0.14-0.636-0.23-1.108-0.271-1.418l-0.224-1.713h2.503l-0.203,1.713
	c-0.044,0.417-0.142,0.89-0.285,1.418c0.289-0.145,0.479-0.241,0.569-0.293c0.316-0.177,0.561-0.298,0.725-0.377l1.577-0.748
	l0.781,2.393l-1.744,0.365c-0.319,0.061-0.792,0.101-1.421,0.124C15.105,25.771,15.439,26.07,15.689,26.342z M27.244,26.342
	l1.18,1.284l-2.041,1.53l-0.836-1.53c-0.124-0.219-0.317-0.647-0.587-1.284c-0.298,0.699-0.494,1.125-0.592,1.284l-0.851,1.53
	l-2.098-1.53l1.269-1.284c0.357-0.353,0.703-0.655,1.046-0.904c-0.348-0.032-0.808-0.097-1.374-0.203l-1.758-0.286l0.816-2.393
	l1.577,0.717c0.164,0.075,0.579,0.311,1.235,0.701c-0.144-0.636-0.234-1.108-0.272-1.418l-0.225-1.711h2.503l-0.203,1.711
	c-0.046,0.417-0.142,0.89-0.284,1.418c0.287-0.145,0.477-0.241,0.569-0.293c0.314-0.177,0.56-0.298,0.725-0.377l1.578-0.748
	l0.782,2.393l-1.745,0.365c-0.319,0.061-0.792,0.101-1.421,0.124C26.66,25.771,26.995,26.07,27.244,26.342z M40.125,25.788h-2.926
	v2.925c0,0.435-0.352,0.788-0.787,0.787c-0.218,0-0.415-0.088-0.558-0.23c-0.142-0.142-0.229-0.339-0.229-0.557v-2.925h-2.926
	c-0.218,0-0.414-0.088-0.557-0.231C32,25.415,31.912,25.218,31.912,25c0-0.435,0.353-0.788,0.787-0.788h2.926v-2.925
	c0-0.435,0.352-0.788,0.787-0.788s0.787,0.353,0.787,0.788v2.925h2.926c0.435,0,0.787,0.353,0.787,0.788S40.56,25.788,40.125,25.788
	z"/>
</svg>
