<?xml version="1.0" encoding="utf-8"?>
<!-- Generator: Adobe Illustrator 16.0.0, SVG Export Plug-In . SVG Version: 6.00 Build 0)  -->
<!DOCTYPE svg PUBLIC "-//W3C//DTD SVG 1.1//EN" "http://www.w3.org/Graphics/SVG/1.1/DTD/svg11.dtd">
<svg version="1.1" id="Layer_1" xmlns="http://www.w3.org/2000/svg" xmlns:xlink="http://www.w3.org/1999/xlink" x="0px" y="0px"
	 width="50px" height="100px" viewBox="0 0 50 100" enable-background="new 0 0 50 100" xml:space="preserve">
<g>
	<g>
		<path fill="#3D3535" d="M42.113,69.438c-0.618-1.916,0.229-4.6-0.934-6.194c-1.173-1.611-3.994-1.627-5.604-2.802
			c-1.597-1.159-2.478-3.844-4.394-4.467c-1.85-0.602-4.135,1.032-6.184,1.032s-4.333-1.634-6.183-1.032
			c-1.916,0.621-2.799,3.308-4.395,4.467c-1.611,1.174-4.432,1.189-5.604,2.802c-1.161,1.596-0.314,4.278-0.936,6.194
			C7.284,71.286,5,72.949,5,75c0,2.048,2.284,3.712,2.885,5.563c0.62,1.916-0.228,4.601,0.936,6.194
			c1.172,1.61,3.994,1.627,5.604,2.8c1.595,1.16,2.478,3.846,4.394,4.471c1.851,0.6,4.133-1.033,6.183-1.033
			c2.049,0,4.334,1.633,6.184,1.033c1.916-0.623,2.797-3.311,4.394-4.469c1.61-1.172,4.433-1.189,5.604-2.802
			c1.16-1.596,0.313-4.276,0.937-6.194C42.715,78.714,45,77.048,45,75C44.998,72.949,42.715,71.287,42.113,69.438z M25,89.093
			c-7.783,0-14.093-6.311-14.093-14.093c0-7.784,6.31-14.093,14.093-14.093c7.784,0,14.092,6.31,14.092,14.093
			C39.092,82.782,32.784,89.093,25,89.093z"/>
		<path fill="#3D3535" d="M25,62.705c-6.779,0-12.295,5.518-12.295,12.295c0,6.779,5.516,12.295,12.295,12.295
			c6.779,0,12.296-5.516,12.296-12.295S31.779,62.705,25,62.705z M25,85.288c-5.673,0-10.289-4.615-10.289-10.289
			c0-5.673,4.616-10.289,10.289-10.289c5.672,0,10.288,4.615,10.288,10.289S30.672,85.288,25,85.288z"/>
		<path fill="#3D3535" d="M26.134,73.646c-1.561-0.588-2.204-0.976-2.204-1.58c0-0.517,0.387-1.03,1.58-1.03
			c0.725,0,1.305,0.127,1.762,0.274c0.229,0.073,0.479,0.049,0.688-0.071s0.356-0.323,0.406-0.558l0.092-0.427
			c0.088-0.418-0.146-0.835-0.55-0.979c-0.428-0.151-0.999-0.264-2.059-0.299V68.2c0-0.47-0.382-0.851-0.852-0.851
			c-0.47,0-0.851,0.381-0.851,0.851v0.907c-1.699,0.387-3.067,1.652-3.067,3.271c0,1.782,1.36,2.701,3.327,3.364
			c1.358,0.458,1.958,0.9,1.958,1.598c0,0.735-0.715,1.141-1.759,1.141c-0.795,0-1.539-0.17-2.176-0.407
			c-0.226-0.085-0.478-0.07-0.69,0.043c-0.214,0.112-0.372,0.31-0.431,0.545l-0.117,0.458c-0.108,0.432,0.136,0.875,0.56,1.014
			c0.772,0.254,1.779,0.44,2.399,0.479v1.19c0,0.472,0.381,0.851,0.85,0.851c0.469,0,0.851-0.379,0.851-0.851V80.48
			c2.549-0.369,3.313-1.764,3.313-3.397C29.163,75.43,28.32,74.416,26.134,73.646z"/>
	</g>
</g>
<g>
	<g>
		<path fill="#3D3535" d="M25.671,23.454c-0.566,0-1.036,0.194-1.436,0.598c-0.351,0.353-0.543,0.757-0.585,1.229l2.927-1.623
			C26.305,23.521,26.006,23.454,25.671,23.454z"/>
		<path fill="#3D3535" d="M33.218,23.454c-0.565,0-1.036,0.194-1.437,0.598c-0.336,0.337-0.526,0.722-0.579,1.171l2.905-1.572
			C33.84,23.52,33.546,23.454,33.218,23.454z"/>
		<path fill="#3D3535" d="M42.344,28.236C43.589,27.436,45,26.523,45,25s-1.411-2.434-2.656-3.236
			c-0.429-0.277-1.21-0.781-1.391-1.047c0.014-0.333,0.474-1.232,0.699-1.676c0.662-1.294,1.41-2.762,0.668-4.045
			c-0.75-1.297-2.408-1.379-3.873-1.452c-0.522-0.026-1.479-0.073-1.771-0.222c-0.146-0.29-0.195-1.247-0.221-1.771
			c-0.073-1.464-0.156-3.123-1.453-3.874c-0.352-0.202-0.75-0.306-1.188-0.306c-0.949,0-1.92,0.495-2.857,0.975
			c-0.559,0.286-1.318,0.674-1.678,0.698c-0.266-0.185-0.768-0.962-1.043-1.39C27.434,6.411,26.521,5,25,5
			c-1.523,0-2.435,1.411-3.238,2.656c-0.276,0.427-0.779,1.205-1.044,1.389c-0.35-0.021-1.115-0.411-1.677-0.697
			c-0.938-0.479-1.908-0.976-2.858-0.976c-0.437,0-0.836,0.104-1.187,0.306c-1.296,0.752-1.379,2.41-1.452,3.874
			c-0.026,0.523-0.074,1.48-0.222,1.771c-0.291,0.147-1.247,0.194-1.771,0.222c-1.464,0.073-3.124,0.156-3.874,1.452
			c-0.742,1.282,0.007,2.751,0.668,4.045c0.226,0.442,0.686,1.343,0.699,1.676c-0.18,0.265-0.962,0.771-1.39,1.046
			C6.411,22.566,5,23.477,5,25s1.411,2.436,2.656,3.238c0.428,0.275,1.209,0.779,1.39,1.045c-0.013,0.333-0.474,1.234-0.699,1.676
			c-0.661,1.294-1.411,2.762-0.668,4.045c0.75,1.297,2.41,1.379,3.874,1.452c0.523,0.026,1.48,0.073,1.771,0.222
			c0.148,0.29,0.195,1.247,0.222,1.771c0.073,1.464,0.155,3.123,1.452,3.874c0.351,0.202,0.75,0.306,1.187,0.306
			c0.95,0,1.92-0.495,2.858-0.975c0.559-0.286,1.318-0.674,1.678-0.698c0.265,0.185,0.768,0.962,1.043,1.39
			C22.565,43.589,23.477,45,25,45c1.521,0,2.434-1.411,3.236-2.656c0.275-0.427,0.779-1.205,1.045-1.389
			c0.351,0.021,1.115,0.411,1.678,0.697c0.938,0.479,1.907,0.976,2.857,0.976c0.437,0,0.836-0.103,1.187-0.306
			c1.297-0.752,1.38-2.41,1.452-3.874c0.025-0.523,0.074-1.48,0.222-1.771c0.291-0.147,1.247-0.194,1.771-0.222
			c1.465-0.073,3.124-0.155,3.874-1.452c0.742-1.282-0.008-2.751-0.67-4.045c-0.227-0.44-0.687-1.343-0.698-1.676
			C41.134,29.02,41.915,28.514,42.344,28.236z M17.472,18.941c0,0.449-0.363,0.813-0.811,0.813h-0.276
			c-0.428,0-0.772,0.157-1.024,0.467c-0.267,0.328-0.402,0.646-0.402,0.944v0.548h1.263c0.448,0,0.811,0.363,0.811,0.811v0.192
			c0,0.447-0.363,0.812-0.811,0.812h-1.263v4.92c0,0.447-0.363,0.812-0.811,0.812h-0.221c-0.448,0-0.811-0.362-0.811-0.812v-7.079
			c0-1.011,0.303-1.837,0.9-2.455c0.6-0.621,1.396-0.937,2.368-0.937h0.276c0.448,0,0.811,0.362,0.811,0.812L17.472,18.941
			L17.472,18.941z M21.351,23.386c-0.62,0.03-1.077,0.246-1.396,0.659c-0.358,0.464-0.54,1.014-0.54,1.635v2.768
			c0,0.447-0.363,0.811-0.811,0.811h-0.221c-0.448,0-0.811-0.361-0.811-0.81l-0.005-5.923c0-0.217,0.085-0.422,0.237-0.574
			c0.152-0.152,0.358-0.237,0.573-0.237h0.226c0.369,0,0.68,0.245,0.778,0.583c0.578-0.431,1.205-0.672,1.872-0.719
			c0.225-0.018,0.445,0.063,0.61,0.216c0.165,0.154,0.258,0.368,0.258,0.593v0.19C22.122,23.009,21.783,23.365,21.351,23.386z
			 M29.277,26.948c-0.188,0.466-0.479,0.897-0.865,1.282c-0.753,0.752-1.676,1.135-2.741,1.135c-1.065,0-1.988-0.381-2.742-1.135
			c-0.755-0.752-1.138-1.676-1.138-2.746c0-1.064,0.382-1.987,1.137-2.742c0.755-0.756,1.678-1.139,2.743-1.139
			c0.944,0,1.733,0.258,2.415,0.789c0.438,0.34,0.672,0.658,0.799,0.83c0.139,0.188,0.188,0.426,0.139,0.652
			c-0.049,0.229-0.192,0.424-0.396,0.537l-4.436,2.461c0.015,0.018,0.03,0.031,0.046,0.048c0.4,0.399,0.87,0.595,1.437,0.595
			c0.567,0,1.039-0.195,1.439-0.599c0.188-0.188,0.336-0.399,0.432-0.624c0.146-0.338,0.497-0.537,0.859-0.484l0.238,0.034
			c0.246,0.035,0.463,0.183,0.588,0.397C29.354,26.456,29.371,26.717,29.277,26.948z M36.824,26.948
			c-0.188,0.466-0.479,0.897-0.866,1.282c-0.753,0.752-1.676,1.135-2.74,1.135c-1.065,0-1.987-0.381-2.743-1.135
			c-0.754-0.752-1.138-1.676-1.138-2.746c0-1.064,0.384-1.987,1.138-2.742c0.756-0.756,1.678-1.139,2.743-1.139
			c0.886,0,1.644,0.244,2.384,0.766c0.447,0.316,0.66,0.615,0.787,0.794l0.043,0.06c0.139,0.188,0.188,0.43,0.137,0.657
			c-0.051,0.229-0.196,0.425-0.403,0.537l-4.31,2.332c-0.057,0.03-0.112,0.053-0.172,0.067c0.03,0.035,0.063,0.07,0.1,0.104
			c0.398,0.399,0.867,0.595,1.436,0.595s1.038-0.195,1.44-0.599c0.188-0.188,0.334-0.399,0.431-0.624
			c0.145-0.338,0.496-0.537,0.861-0.484l0.236,0.034c0.246,0.035,0.463,0.183,0.588,0.397
			C36.898,26.456,36.918,26.717,36.824,26.948z"/>
	</g>
</g>
</svg>
