<?xml version="1.0" encoding="utf-8"?>
<!-- Generator: Adobe Illustrator 16.0.0, SVG Export Plug-In . SVG Version: 6.00 Build 0)  -->
<!DOCTYPE svg PUBLIC "-//W3C//DTD SVG 1.1//EN" "http://www.w3.org/Graphics/SVG/1.1/DTD/svg11.dtd">
<svg version="1.1" id="Layer_1" xmlns="http://www.w3.org/2000/svg" xmlns:xlink="http://www.w3.org/1999/xlink" x="0px" y="0px"
	 width="50px" height="100px" viewBox="0 0 50 100" enable-background="new 0 0 50 100" xml:space="preserve">
<g>
	<g>
		<path fill="#3E3636" d="M6.603,93.866h36.794c0.49,0,0.949-0.201,1.256-0.551c0.268-0.303,0.387-0.688,0.336-1.084
			c-0.863-6.721-4.996-12.322-10.654-15.309c-2.393,2.392-5.693,3.873-9.334,3.873c-3.642,0-6.942-1.481-9.334-3.873
			c-5.658,2.986-9.792,8.588-10.653,15.309c-0.052,0.396,0.067,0.781,0.334,1.084C5.653,93.665,6.11,93.866,6.603,93.866z"/>
		<path fill="#3E3636" d="M16.708,75.469c0.214,0.225,0.438,0.44,0.671,0.647c2.027,1.813,4.692,2.926,7.62,2.926
			c2.927,0,5.593-1.113,7.62-2.926c0.232-0.209,0.457-0.422,0.671-0.647c0.214-0.225,0.422-0.456,0.619-0.697
			c1.588-1.967,2.545-4.464,2.545-7.183c0-6.316-5.14-11.455-11.454-11.455c-6.315,0-11.454,5.139-11.454,11.454
			c0,2.719,0.957,5.217,2.545,7.184C16.285,75.015,16.494,75.244,16.708,75.469z"/>
	</g>
</g>
<g>
	<g id="_x36__30_">
		<g>
			<path fill="#3E3636" d="M26.68,32.802c-0.488,0.489-0.488,1.28,0,1.769s1.279,0.488,1.768,0l8.623-8.625
				c0.261-0.26,0.371-0.606,0.354-0.946c0.019-0.341-0.094-0.687-0.354-0.946l-8.623-8.623c-0.487-0.49-1.28-0.49-1.768,0
				c-0.488,0.488-0.488,1.279,0,1.768l6.553,6.554H6.25C5.56,23.75,5,24.311,5,25s0.56,1.25,1.25,1.25h26.982L26.68,32.802z M40,7.5
				H15c-2.762,0-5,2.239-5,5v5h2.5v-5c0-1.38,1.119-2.5,2.5-2.5h25c1.381,0,2.5,1.12,2.5,2.5v25c0,1.38-1.119,2.5-2.5,2.5H15
				c-1.381,0-2.5-1.119-2.5-2.5v-5H10v5c0,2.761,2.238,5,5,5h25c2.762,0,5-2.239,5-5v-25C45,9.739,42.762,7.5,40,7.5z"/>
		</g>
	</g>
</g>
</svg>
