<?xml version="1.0" encoding="utf-8"?>
<!-- Generator: Adobe Illustrator 16.0.0, SVG Export Plug-In . SVG Version: 6.00 Build 0)  -->
<!DOCTYPE svg PUBLIC "-//W3C//DTD SVG 1.1//EN" "http://www.w3.org/Graphics/SVG/1.1/DTD/svg11.dtd">
<svg version="1.1" id="Layer_1" xmlns="http://www.w3.org/2000/svg" xmlns:xlink="http://www.w3.org/1999/xlink" x="0px" y="0px"
	 width="50px" height="50px" viewBox="0 0 50 50" enable-background="new 0 0 50 50" xml:space="preserve">
<g>
	<g>
		<g>
			<path fill="#3D3535" d="M43.391,5.117c-0.677,0-1.25,0.447-1.491,1.08c-2.789,1.453-9.271,4.738-14.047,6.559
				C18.911,16.174,11.11,17.07,11.11,17.07v12.871c0,0,2.669,0.311,6.661,1.242l0.061,11.994c0.005,0.939,0.784,1.709,1.727,1.705
				l2.79-0.015c0.943-0.007,1.708-0.779,1.706-1.726L23.998,32.91c1.25,0.398,2.538,0.842,3.858,1.348
				c4.773,1.824,11.257,5.108,14.051,6.559c0.238,0.632,0.813,1.078,1.486,1.078c0.884,0,1.607-0.768,1.607-1.716V6.834
				C44.998,5.89,44.274,5.117,43.391,5.117z"/>
			<rect x="5" y="17.216" fill="#3D3535" width="4.683" height="12.583"/>
		</g>
	</g>
</g>
</svg>
