<?xml version="1.0" encoding="utf-8"?>
<!-- Generator: Adobe Illustrator 16.0.0, SVG Export Plug-In . SVG Version: 6.00 Build 0)  -->
<!DOCTYPE svg PUBLIC "-//W3C//DTD SVG 1.1//EN" "http://www.w3.org/Graphics/SVG/1.1/DTD/svg11.dtd">
<svg version="1.1" id="Layer_1" xmlns="http://www.w3.org/2000/svg" xmlns:xlink="http://www.w3.org/1999/xlink" x="0px" y="0px"
	 width="50px" height="200px" viewBox="0 0 50 200" enable-background="new 0 0 50 200" xml:space="preserve">
<g>
	<g>
		<path fill="#3D3535" d="M27.389,40.017c-0.301,0.425-0.741,0.733-1.243,0.872l-2.497,0.682c-0.196,0.056-0.398,0.084-0.602,0.084
			c-0.461,0-0.906-0.141-1.281-0.404c-0.55-0.384-0.896-0.988-0.95-1.642l-0.219-2.579c-0.052-0.53,0.09-1.059,0.391-1.485
			l0.093-0.133h-8.909c-0.718,0-1.302-0.593-1.302-1.31c0-0.72,0.583-1.312,1.302-1.312h10.783l2.41-3.442H12.171
			c-0.718,0-1.302-0.592-1.302-1.312c0-0.718,0.583-1.311,1.302-1.311l15.048-0.039l5.643-8.091v-5.991
			c0-0.985-0.763-1.78-1.744-1.78h-4.32v3.419c0,1.613-1.318,2.89-2.93,2.89H15.18c-1.615,0-2.889-1.277-2.889-2.89v-3.419H7.925
			c-0.983,0-1.78,0.795-1.78,1.78v30.571c0,0.985,0.797,1.823,1.78,1.823h23.191c0.984,0,1.745-0.839,1.745-1.823V32.245
			L27.389,40.017z M12.171,20.661h14.701c0.717,0,1.301,0.592,1.301,1.311c0,0.718-0.584,1.311-1.301,1.311H12.171
			c-0.718,0-1.302-0.593-1.302-1.311C10.87,21.253,11.453,20.661,12.171,20.661z"/>
		<path fill="#3D3535" d="M15.204,15.416h8.68c0.657,0,1.191-0.533,1.191-1.192V9.231c0-0.658-0.534-1.192-1.191-1.192h-1.308
			C22.568,6.36,21.203,5,19.521,5c-1.683,0-3.046,1.359-3.055,3.039h-1.262c-0.659,0-1.192,0.534-1.192,1.192v4.991
			C14.012,14.881,14.545,15.416,15.204,15.416z M19.522,6.692c0.748,0,1.354,0.602,1.362,1.347h-2.726
			C18.167,7.294,18.774,6.692,19.522,6.692z"/>
		<path fill="#3D3535" d="M43.842,13.036c-0.04-0.222-0.166-0.416-0.351-0.545l-2.173-1.515c-0.146-0.103-0.316-0.152-0.482-0.152
			c-0.266,0-0.529,0.125-0.691,0.361L24.75,33.262l3.556,2.479l15.396-22.075C43.83,13.483,43.881,13.256,43.842,13.036z"/>
		<path fill="#3D3535" d="M22.325,36.866l0.223,2.593c0.012,0.149,0.091,0.282,0.212,0.369c0.085,0.059,0.187,0.093,0.288,0.093
			c0.043,0,0.088-0.006,0.131-0.019l2.511-0.688c0.114-0.031,0.212-0.101,0.28-0.196l0.942-1.352l-3.559-2.482l-0.942,1.352
			C22.344,36.632,22.313,36.749,22.325,36.866z"/>
	</g>
</g>
<g>
	<g id="_x36__30_">
		<g>
			<path fill="#3D3535" d="M26.679,82.802c-0.488,0.489-0.488,1.28,0,1.768c0.489,0.489,1.28,0.489,1.768,0l8.624-8.625
				c0.26-0.26,0.371-0.606,0.354-0.946c0.018-0.341-0.094-0.686-0.354-0.946l-8.624-8.624c-0.487-0.489-1.28-0.489-1.768,0
				c-0.488,0.489-0.488,1.28,0,1.768l6.554,6.554H6.25C5.56,73.75,5,74.31,5,75s0.56,1.25,1.25,1.25h26.982L26.679,82.802z M40,57.5
				H15c-2.762,0-5,2.239-5,5v5h2.5v-5c0-1.38,1.119-2.5,2.5-2.5h25c1.381,0,2.5,1.12,2.5,2.5v25c0,1.38-1.119,2.5-2.5,2.5H15
				c-1.381,0-2.5-1.119-2.5-2.5v-5H10v5c0,2.761,2.238,5,5,5h25c2.762,0,5-2.239,5-5v-25C45,59.739,42.762,57.5,40,57.5z"/>
		</g>
	</g>
</g>
<path fill="#3D3535" d="M45,106.261v7.646v29.832c0,0.696-0.564,1.261-1.261,1.261H6.261C5.564,145,5,144.436,5,143.739v-29.832
	v-7.646c0-0.044,0.002-0.087,0.007-0.129C5.071,105.496,5.607,105,6.26,105h0.001h37.479h0.001c0.652,0,1.188,0.496,1.253,1.132
	C44.998,106.174,45,106.217,45,106.261z M22.558,110.084c0,1.136,0.923,2.059,2.059,2.059c1.135,0,2.059-0.923,2.059-2.059
	c0-1.135-0.923-2.059-2.059-2.059C23.481,108.025,22.558,108.949,22.558,110.084z M15.082,110.084c0,1.136,0.923,2.059,2.059,2.059
	c1.135,0,2.059-0.923,2.059-2.059c0-1.135-0.924-2.059-2.059-2.059C16.005,108.025,15.082,108.949,15.082,110.084z M7.605,110.084
	c0,1.136,0.923,2.059,2.059,2.059s2.059-0.923,2.059-2.059c0-1.135-0.924-2.059-2.059-2.059S7.605,108.949,7.605,110.084z
	 M42.479,115.168H7.521v27.311h34.958V115.168z M38.774,129.411l-0.804,2.142c-0.184,0.491-0.654,0.817-1.18,0.817h-1.186
	c-0.334,0-0.654-0.133-0.892-0.369l-0.79-0.791l-0.792,0.791c-0.236,0.236-0.557,0.369-0.892,0.369h-0.917
	c-0.335,0-0.655-0.133-0.892-0.369l-0.791-0.791l-0.791,0.791c-0.236,0.236-0.557,0.369-0.892,0.369h-1.564
	c-1.304,2.778-4.104,4.589-7.23,4.589c-4.406,0-7.99-3.585-7.99-7.991c0-4.405,3.584-7.989,7.99-7.989
	c3.126,0,5.926,1.81,7.23,4.588h10.397c0.525,0,0.996,0.326,1.18,0.818l0.804,2.141C38.881,128.811,38.881,129.125,38.774,129.411z
	 M16.334,127.476c-0.823,0-1.492,0.67-1.492,1.492c0,0.823,0.669,1.493,1.492,1.493c0.823,0,1.493-0.67,1.493-1.493
	C17.827,128.146,17.157,127.476,16.334,127.476z"/>
</svg>
