<?xml version="1.0" encoding="utf-8"?>
<!-- Generator: Adobe Illustrator 16.0.0, SVG Export Plug-In . SVG Version: 6.00 Build 0)  -->
<!DOCTYPE svg PUBLIC "-//W3C//DTD SVG 1.1//EN" "http://www.w3.org/Graphics/SVG/1.1/DTD/svg11.dtd">
<svg version="1.1" id="Layer_1" xmlns="http://www.w3.org/2000/svg" xmlns:xlink="http://www.w3.org/1999/xlink" x="0px" y="0px"
	 width="100px" height="400px" viewBox="0 0 100 400" enable-background="new 0 0 100 400" xml:space="preserve">
<g>
	<g>
		<path fill="#3D3535" d="M24.999,5.567c-11.046,0-20,8.954-20,20s8.954,20,20,20s20-8.954,20-20S36.045,5.567,24.999,5.567z
			 M24.999,42.442c-9.32,0-16.875-7.555-16.875-16.875c0-9.32,7.555-16.875,16.875-16.875s16.875,7.555,16.875,16.875
			C41.874,34.887,34.319,42.442,24.999,42.442z"/>
		<path fill="#3D3535" d="M28.124,24.317H27.46c0.024-0.197,0.039-0.405,0.039-0.625c0-1.031-1.125-1.875-2.5-1.875
			s-2.5,0.844-2.5,1.875c0,0.22,0.015,0.428,0.039,0.625h-0.664c-0.346,0-0.625,0.279-0.625,0.625v3.75
			c0,0.346,0.279,0.625,0.625,0.625h6.25c0.346,0,0.625-0.279,0.625-0.625v-3.75C28.749,24.596,28.47,24.317,28.124,24.317z
			 M23.749,24.317c-0.375-0.75,0.563-1.5,1.25-1.5s1.625,0.75,1.25,1.5H23.749z"/>
		<path fill="#3D3535" d="M33.976,29.879l2.398-4.312h-1.499c-0.062-5.652-4.424-9.962-9.905-9.969
			c-5.516-0.006-9.982,4.459-9.975,9.976c0.006,5.518,4.481,9.993,9.998,9.998c3.115,0.007,5.891-1.416,7.718-3.643l-1.194-1.991
			c-1.401,2.111-3.8,3.496-6.528,3.493c-4.333-0.002-7.85-3.521-7.854-7.854c-0.005-4.335,3.503-7.842,7.837-7.837
			c4.314,0.007,7.741,3.577,7.777,7.828l-1.488-0.002L33.976,29.879z"/>
	</g>
</g>
<g>
	<g>
		<path fill="#FFFFFF" d="M74.999,5.567c-11.047,0-20,8.954-20,20s8.953,20,20,20c11.046,0,20-8.954,20-20
			S86.045,5.567,74.999,5.567z M74.999,42.442c-9.319,0-16.875-7.555-16.875-16.875c0-9.32,7.556-16.875,16.875-16.875
			s16.875,7.555,16.875,16.875C91.874,34.887,84.318,42.442,74.999,42.442z"/>
		<path fill="#FFFFFF" d="M78.124,24.317H77.46c0.022-0.197,0.039-0.405,0.039-0.625c0-1.031-1.125-1.875-2.5-1.875
			s-2.5,0.844-2.5,1.875c0,0.22,0.017,0.428,0.039,0.625h-0.664c-0.347,0-0.625,0.279-0.625,0.625v3.75
			c0,0.346,0.278,0.625,0.625,0.625h6.25c0.347,0,0.625-0.279,0.625-0.625v-3.75C78.749,24.596,78.471,24.317,78.124,24.317z
			 M73.749,24.317c-0.375-0.75,0.563-1.5,1.25-1.5s1.625,0.75,1.25,1.5H73.749z"/>
		<path fill="#FFFFFF" d="M83.977,29.879l2.397-4.312h-1.5c-0.063-5.652-4.424-9.962-9.903-9.969
			c-5.517-0.006-9.982,4.459-9.976,9.976c0.006,5.517,4.479,9.993,9.998,9.998c3.114,0.008,5.891-1.416,7.719-3.643l-1.192-1.991
			c-1.398,2.11-3.802,3.496-6.525,3.493c-4.334-0.003-7.854-3.521-7.854-7.854c-0.009-4.335,3.504-7.842,7.836-7.837
			c4.313,0.007,7.738,3.577,7.774,7.828l-1.485-0.002L83.977,29.879z"/>
	</g>
</g>
<g>
	<g>
		<path fill="#3D3535" d="M6.603,94.433h36.793c0.491,0,0.95-0.201,1.257-0.55c0.267-0.303,0.386-0.688,0.335-1.083
			c-0.863-6.722-4.996-12.323-10.654-15.31c-2.392,2.392-5.693,3.873-9.334,3.873s-6.942-1.481-9.334-3.873
			c-5.658,2.986-9.792,8.588-10.654,15.31c-0.051,0.395,0.068,0.78,0.334,1.083C5.653,94.233,6.111,94.433,6.603,94.433z"/>
		<path fill="#3D3535" d="M16.708,76.036c0.214,0.225,0.438,0.44,0.671,0.647c2.027,1.813,4.693,2.926,7.62,2.926
			c2.927,0,5.593-1.113,7.62-2.926c0.232-0.208,0.457-0.422,0.671-0.647s0.422-0.456,0.619-0.697
			c1.588-1.967,2.545-4.464,2.545-7.183c0-6.316-5.139-11.455-11.454-11.455S13.546,61.84,13.546,68.155
			c0,2.719,0.957,5.217,2.545,7.184C16.285,75.582,16.494,75.811,16.708,76.036z"/>
	</g>
</g>
<g>
	<g>
		<path fill="#FFFFFF" d="M56.604,94.433h36.793c0.492,0,0.951-0.201,1.258-0.551c0.271-0.303,0.389-0.688,0.338-1.082
			c-0.862-6.723-4.996-12.323-10.654-15.311c-2.395,2.393-5.689,3.873-9.334,3.873s-6.939-1.48-9.334-3.873
			c-5.656,2.986-9.793,8.588-10.65,15.311c-0.055,0.395,0.064,0.78,0.334,1.082C55.65,94.232,56.109,94.433,56.604,94.433z"/>
		<path fill="#FFFFFF" d="M66.708,76.038c0.215,0.225,0.438,0.439,0.671,0.647c2.027,1.813,4.693,2.926,7.62,2.926
			s5.593-1.113,7.619-2.926c0.231-0.208,0.457-0.423,0.672-0.647c0.213-0.226,0.422-0.456,0.618-0.697
			c1.589-1.967,2.545-4.465,2.545-7.184c0-6.316-5.141-11.454-11.454-11.454s-11.454,5.139-11.454,11.454
			c0,2.719,0.956,5.217,2.545,7.184C66.285,75.582,66.493,75.811,66.708,76.038z"/>
	</g>
</g>
<g>
	<g>
		<path fill="#3D3535" d="M5,208.75v32.5h40v-32.5H5z M42.5,238.75h-35v-25h35V238.75z"/>
		<rect x="27.5" y="218.75" fill="#3D3535" width="12.5" height="2.5"/>
		<rect x="27.5" y="223.75" fill="#3D3535" width="12.5" height="2.5"/>
		<rect x="27.5" y="228.75" fill="#3D3535" width="7.5" height="2.5"/>
		<rect x="10" y="218.75" fill="#3D3535" width="12.5" height="12.5"/>
	</g>
</g>
<g>
	<g>
		<path fill="#FFFFFF" d="M55,208.75v32.5h40v-32.5H55z M92.5,238.75h-35v-25h35V238.75z"/>
		<rect x="77.5" y="218.75" fill="#FFFFFF" width="12.5" height="2.5"/>
		<rect x="77.5" y="223.75" fill="#FFFFFF" width="12.5" height="2.5"/>
		<rect x="77.5" y="228.75" fill="#FFFFFF" width="7.5" height="2.5"/>
		<rect x="60" y="218.75" fill="#FFFFFF" width="12.5" height="12.5"/>
	</g>
</g>
<g id="Settings">
	<g>
		<path fill="#3D3535" d="M44.874,272.777c-0.063-0.563-0.719-0.983-1.286-0.983c-1.833,0-3.459-1.076-4.141-2.739
			c-0.697-1.705-0.248-3.693,1.119-4.945c0.43-0.396,0.482-1.053,0.122-1.51c-0.938-1.188-2.004-2.267-3.169-3.199
			c-0.456-0.361-1.125-0.313-1.52,0.123c-1.192,1.319-3.333,1.813-4.988,1.121c-1.722-0.726-2.808-2.472-2.702-4.345
			c0.035-0.588-0.395-1.1-0.981-1.168c-1.494-0.172-3.001-0.178-4.5-0.012c-0.58,0.063-1.01,0.563-0.99,1.146
			c0.065,1.854-1.034,3.567-2.739,4.271c-1.635,0.668-3.761,0.182-4.951-1.127c-0.393-0.436-1.051-0.484-1.509-0.129
			c-1.199,0.938-2.289,2.02-3.235,3.197c-0.369,0.459-0.315,1.125,0.119,1.521c1.392,1.26,1.842,3.27,1.119,4.988
			c-0.69,1.646-2.397,2.701-4.352,2.701c-0.634-0.021-1.086,0.405-1.155,0.981c-0.176,1.502-0.178,3.033-0.008,4.549
			c0.063,0.564,0.738,0.982,1.311,0.982c1.742-0.043,3.414,1.034,4.115,2.739c0.699,1.705,0.25,3.689-1.118,4.943
			c-0.428,0.396-0.482,1.053-0.122,1.51c0.929,1.185,1.996,2.262,3.164,3.199c0.458,0.367,1.125,0.316,1.522-0.119
			c1.196-1.322,3.338-1.813,4.986-1.121c1.726,0.724,2.812,2.467,2.706,4.342c-0.035,0.589,0.397,1.103,0.981,1.168
			c0.764,0.091,1.533,0.136,2.304,0.136c0.731,0,1.463-0.041,2.195-0.123c0.58-0.063,1.01-0.563,0.99-1.146
			c-0.067-1.854,1.034-3.563,2.736-4.265c1.646-0.674,3.764-0.182,4.954,1.127c0.396,0.431,1.049,0.48,1.509,0.125
			c1.197-0.938,2.285-2.014,3.236-3.198c0.369-0.457,0.317-1.125-0.12-1.521c-1.392-1.261-1.844-3.269-1.121-4.99
			c0.68-1.62,2.324-2.711,4.092-2.711l0.247,0.009c0.573,0.045,1.101-0.396,1.171-0.979
			C45.041,275.823,45.042,274.294,44.874,272.777z M25.031,281.714c-3.679,0-6.671-2.991-6.671-6.672
			c0-3.679,2.993-6.672,6.671-6.672c3.678,0,6.671,2.993,6.671,6.672C31.702,278.723,28.708,281.714,25.031,281.714z"/>
	</g>
</g>
<g id="Settings_1_">
	<g>
		<path fill="#FFFFFF" d="M94.874,272.777c-0.063-0.563-0.72-0.983-1.286-0.983c-1.833,0-3.459-1.076-4.141-2.739
			c-0.696-1.705-0.247-3.693,1.117-4.945c0.431-0.396,0.479-1.053,0.121-1.51c-0.938-1.188-2.004-2.269-3.168-3.199
			c-0.457-0.361-1.125-0.313-1.521,0.123c-1.189,1.317-3.333,1.813-4.988,1.119c-1.722-0.724-2.808-2.47-2.699-4.343
			c0.032-0.588-0.396-1.1-0.979-1.168c-1.494-0.172-3.002-0.178-4.5-0.012c-0.58,0.063-1.012,0.563-0.99,1.146
			c0.063,1.854-1.031,3.567-2.736,4.27c-1.638,0.668-3.764,0.182-4.951-1.125c-0.396-0.436-1.051-0.484-1.51-0.128
			c-1.199,0.938-2.289,2.017-3.232,3.196c-0.369,0.459-0.314,1.125,0.117,1.521c1.394,1.26,1.844,3.27,1.117,4.988
			c-0.688,1.646-2.396,2.701-4.354,2.701c-0.637-0.021-1.086,0.405-1.154,0.981c-0.177,1.502-0.179,3.033-0.01,4.549
			c0.063,0.564,0.737,0.982,1.313,0.982c1.74-0.043,3.414,1.034,4.11,2.739c0.7,1.705,0.25,3.689-1.114,4.943
			c-0.431,0.396-0.48,1.053-0.121,1.51c0.93,1.185,1.996,2.262,3.164,3.199c0.459,0.367,1.125,0.316,1.521-0.119
			c1.193-1.322,3.338-1.813,4.984-1.121c1.728,0.726,2.813,2.467,2.705,4.342c-0.034,0.589,0.396,1.103,0.979,1.168
			c0.767,0.091,1.533,0.136,2.306,0.136c0.729,0,1.465-0.041,2.194-0.123c0.58-0.063,1.013-0.563,0.99-1.146
			c-0.067-1.854,1.03-3.563,2.733-4.265c1.646-0.674,3.767-0.18,4.953,1.127c0.396,0.431,1.049,0.48,1.51,0.125
			c1.197-0.938,2.285-2.014,3.235-3.198c0.367-0.457,0.315-1.125-0.118-1.521c-1.395-1.26-1.848-3.269-1.121-4.99
			c0.682-1.62,2.32-2.711,4.092-2.711l0.246,0.009c0.574,0.045,1.104-0.396,1.174-0.979
			C95.042,275.823,95.044,274.294,94.874,272.777z M75.029,281.714c-3.68,0-6.672-2.991-6.672-6.672
			c0-3.679,2.992-6.672,6.672-6.672c3.681,0,6.673,2.993,6.673,6.672C81.702,278.723,78.71,281.714,75.029,281.714z"/>
	</g>
</g>
<g>
	<g id="Info">
		<g>
			<path fill="#3D3535" d="M25,315c-1.38,0-2.5,1.121-2.5,2.5c0,1.381,1.12,2.5,2.5,2.5s2.5-1.119,2.5-2.5S26.381,315,25,315z
				 M25,322.5c-1.38,0-2.5,1.119-2.5,2.5v7.5c0,1.381,1.12,2.5,2.5,2.5s2.5-1.119,2.5-2.5V325C27.5,323.621,26.381,322.5,25,322.5z
				 M25,305c-11.027,0-20,8.973-20,20s8.973,20,20,20s20-8.973,20-20S36.027,305,25,305z M25,341.25
				c-8.961,0-16.25-7.289-16.25-16.25c0-8.959,7.289-16.25,16.25-16.25c8.96,0,16.25,7.291,16.25,16.25
				C41.25,333.961,33.96,341.25,25,341.25z"/>
		</g>
	</g>
</g>
<g>
	<g id="Info_1_">
		<g>
			<path fill="#FFFFFF" d="M75,315c-1.38,0-2.5,1.121-2.5,2.5c0,1.381,1.12,2.5,2.5,2.5s2.5-1.119,2.5-2.5S76.381,315,75,315z
				 M75,322.5c-1.38,0-2.5,1.119-2.5,2.5v7.5c0,1.381,1.12,2.5,2.5,2.5s2.5-1.119,2.5-2.5V325C77.5,323.621,76.381,322.5,75,322.5z
				 M75,305c-11.027,0-20,8.973-20,20s8.973,20,20,20s20-8.973,20-20S86.027,305,75,305z M75,341.25
				c-8.961,0-16.25-7.289-16.25-16.25c0-8.959,7.289-16.25,16.25-16.25c8.96,0,16.25,7.291,16.25,16.25
				C91.25,333.961,83.96,341.25,75,341.25z"/>
		</g>
	</g>
</g>
<g>
	<g>
		<path fill="#3D3535" d="M37.538,130.423c-2.316,0-4.358,1.104-5.693,2.793l-12.378-6.331c0.162-0.604,0.279-1.229,0.279-1.886
			c0-0.716-0.139-1.39-0.332-2.044l12.323-6.303c1.327,1.768,3.423,2.921,5.803,2.921c4.03,0,7.291-3.261,7.291-7.287
			c0-4.024-3.261-7.286-7.291-7.286c-4.022,0-7.287,3.262-7.287,7.286c0,0.657,0.117,1.284,0.281,1.892l-12.376,6.33
			c-1.337-1.691-3.383-2.798-5.702-2.798c-4.027,0-7.286,3.265-7.286,7.289s3.259,7.287,7.286,7.287
			c2.383,0,4.477-1.157,5.809-2.925l12.318,6.301c-0.192,0.652-0.333,1.333-0.333,2.05c0,4.026,3.265,7.288,7.286,7.288
			c4.031,0,7.292-3.262,7.292-7.288C44.829,133.684,41.568,130.423,37.538,130.423z"/>
	</g>
</g>
<g>
	<g>
		<path fill="#FFFFFF" d="M87.537,130.423c-2.314,0-4.357,1.104-5.693,2.793l-12.377-6.331c0.162-0.604,0.278-1.229,0.278-1.886
			c0-0.716-0.14-1.39-0.331-2.044l12.322-6.303c1.328,1.768,3.424,2.921,5.803,2.921c4.031,0,7.291-3.261,7.291-7.287
			c0-4.024-3.26-7.286-7.291-7.286c-4.021,0-7.286,3.262-7.286,7.286c0,0.657,0.117,1.284,0.28,1.892l-12.375,6.33
			c-1.338-1.691-3.385-2.798-5.703-2.798c-4.027,0-7.285,3.265-7.285,7.289s3.258,7.287,7.285,7.287
			c2.383,0,4.477-1.157,5.811-2.925l12.316,6.301c-0.191,0.652-0.332,1.333-0.332,2.05c0,4.026,3.264,7.288,7.285,7.288
			c4.031,0,7.292-3.262,7.292-7.288C94.829,133.684,91.568,130.423,87.537,130.423z"/>
	</g>
</g>
<g>
	<g>
		<g>
			<path fill="#3D3535" d="M43.391,355.117c-0.677,0-1.25,0.447-1.491,1.08c-2.789,1.453-9.271,4.738-14.047,6.559
				c-8.941,3.418-16.742,4.314-16.742,4.314v12.871c0,0,2.669,0.311,6.661,1.242l0.061,11.992c0.005,0.939,0.784,1.709,1.727,1.705
				l2.79-0.015c0.943-0.009,1.708-0.779,1.706-1.728l-0.057-10.23c1.25,0.396,2.538,0.842,3.858,1.348
				c4.773,1.824,11.257,5.107,14.051,6.561c0.238,0.631,0.813,1.078,1.486,1.078c0.884,0,1.607-0.77,1.607-1.718v-33.345
				C44.998,355.891,44.274,355.117,43.391,355.117z"/>
			<rect x="5" y="367.217" fill="#3D3535" width="4.683" height="12.582"/>
		</g>
	</g>
</g>
<g>
	<g>
		<g>
			<path fill="#FFFFFF" d="M93.391,355.117c-0.677,0-1.25,0.447-1.49,1.08c-2.789,1.453-9.271,4.738-14.047,6.559
				c-8.94,3.418-16.742,4.314-16.742,4.314v12.871c0,0,2.668,0.311,6.66,1.242l0.063,11.992c0.006,0.939,0.783,1.709,1.729,1.705
				l2.789-0.015c0.941-0.009,1.709-0.779,1.707-1.728L74,382.908c1.249,0.396,2.537,0.842,3.855,1.348
				c4.773,1.824,11.259,5.107,14.053,6.561c0.236,0.631,0.813,1.078,1.484,1.078c0.885,0,1.607-0.77,1.607-1.718v-33.345
				C94.998,355.891,94.273,355.117,93.391,355.117z"/>
			<rect x="55" y="367.217" fill="#FFFFFF" width="4.684" height="12.582"/>
		</g>
	</g>
</g>
<g>
	<g id="_x36__30_">
		<g>
			<path fill="#3D3535" d="M26.68,182.802c-0.491,0.487-0.491,1.278,0,1.768c0.487,0.487,1.279,0.487,1.766,0l8.625-8.625
				c0.259-0.262,0.37-0.605,0.353-0.947c0.017-0.341-0.094-0.686-0.353-0.945l-8.625-8.625c-0.487-0.488-1.279-0.488-1.766,0
				c-0.491,0.488-0.491,1.28,0,1.767l6.553,6.555H6.25C5.561,173.75,5,174.309,5,175s0.561,1.25,1.25,1.25h26.983L26.68,182.802z
				 M40,157.5H15c-2.76,0-5,2.238-5,5v5h2.5v-5c0-1.38,1.119-2.5,2.5-2.5h25c1.381,0,2.5,1.12,2.5,2.5v25c0,1.377-1.119,2.5-2.5,2.5
				H15c-1.381,0-2.5-1.12-2.5-2.5v-5H10v5c0,2.76,2.24,5,5,5h25c2.76,0,5-2.24,5-5v-25C45,159.738,42.76,157.5,40,157.5z"/>
		</g>
	</g>
</g>
<g>
	<g id="_x36__1_">
		<g>
			<path fill="#FFFFFF" d="M76.68,182.803c-0.49,0.486-0.49,1.277,0,1.768c0.486,0.486,1.279,0.486,1.766,0l8.625-8.625
				c0.26-0.262,0.369-0.605,0.354-0.947c0.016-0.341-0.094-0.686-0.354-0.945l-8.625-8.625c-0.486-0.488-1.279-0.488-1.766,0
				c-0.49,0.488-0.49,1.28,0,1.767l6.553,6.555H56.25c-0.689,0-1.25,0.559-1.25,1.25s0.561,1.25,1.25,1.25h26.982L76.68,182.803z
				 M90,157.5H65c-2.76,0-5,2.238-5,5v5h2.5v-5c0-1.38,1.119-2.5,2.5-2.5h25c1.381,0,2.5,1.12,2.5,2.5v25c0,1.377-1.119,2.5-2.5,2.5
				H65c-1.381,0-2.5-1.119-2.5-2.5v-5H60v5c0,2.76,2.24,5,5,5h25c2.76,0,5-2.24,5-5v-25C95,159.738,92.76,157.5,90,157.5z"/>
		</g>
	</g>
</g>
</svg>
