<?xml version="1.0" encoding="utf-8"?>
<!-- Generator: Adobe Illustrator 16.0.0, SVG Export Plug-In . SVG Version: 6.00 Build 0)  -->
<!DOCTYPE svg PUBLIC "-//W3C//DTD SVG 1.1//EN" "http://www.w3.org/Graphics/SVG/1.1/DTD/svg11.dtd">
<svg version="1.1" id="Layer_1" xmlns="http://www.w3.org/2000/svg" xmlns:xlink="http://www.w3.org/1999/xlink" x="0px" y="0px"
	 width="50px" height="200px" viewBox="0 0 50 200" enable-background="new 0 0 50 200" xml:space="preserve">
<g>
	<g>
		<path fill="#3D3535" d="M6.604,43.865h36.791c0.492,0,0.951-0.201,1.258-0.551c0.269-0.303,0.388-0.688,0.334-1.082
			c-0.86-6.724-4.993-12.322-10.651-15.312c-2.394,2.394-5.69,3.873-9.333,3.873c-3.641,0-6.942-1.479-9.334-3.873
			c-5.658,2.986-9.792,8.588-10.654,15.312c-0.051,0.395,0.068,0.779,0.334,1.082C5.653,43.666,6.111,43.865,6.604,43.865z"/>
		<path fill="#3D3535" d="M16.708,25.469c0.214,0.227,0.438,0.441,0.671,0.648c2.027,1.813,4.693,2.926,7.62,2.926
			c2.926,0,5.592-1.113,7.62-2.926c0.23-0.209,0.457-0.424,0.671-0.648c0.214-0.224,0.422-0.455,0.619-0.695
			c1.588-1.967,2.545-4.465,2.545-7.184c0-6.316-5.14-11.455-11.454-11.455c-6.315,0-11.454,5.139-11.454,11.453
			c0,2.721,0.957,5.219,2.545,7.186C16.286,25.016,16.495,25.244,16.708,25.469z"/>
	</g>
</g>
<g>
	<path fill="#3D3535" d="M38.477,126.262c0.119-5.697-4.418-10.432-10.115-10.551c-5.696-0.121-10.43,4.416-10.551,10.115
		c-0.002,0.096,0.006,0.184,0.008,0.279h-0.002c0,0.026,0.004,0.059,0.004,0.088c0.004,0.293,0.016,0.584,0.045,0.871
		c0.014,0.151,0.039,0.303,0.06,0.453c0.022,0.168,0.044,0.336,0.077,0.498c0.012,0.061,0.016,0.116,0.027,0.176
		c0.004,0,0.009,0,0.015,0c0.122,0.567,0.28,1.125,0.491,1.658c-0.006,0-0.014,0-0.02,0c0.289,0.741,0.668,1.438,1.113,2.088
		c0.016,0,0.027,0,0.044,0c0.988,1.416,2.32,2.571,3.88,3.35c-0.039,0-0.08,0-0.121,0c1.241,0.641,2.625,1.033,4.098,1.121
		c0-0.018,0-0.041,0-0.061c0.134,0.008,0.263,0.022,0.396,0.026c1.241,0.022,2.43-0.179,3.541-0.562v0.064
		c0.896-0.305,1.736-0.727,2.502-1.252v-0.064C36.624,132.746,38.402,129.721,38.477,126.262z M27.977,133.783
		c-3.645-0.076-6.646-2.678-7.392-6.092c-0.024-0.115-0.052-0.229-0.071-0.346c-0.02-0.125-0.033-0.25-0.049-0.375
		c-0.029-0.271-0.054-0.544-0.055-0.822c-0.001-0.09-0.01-0.176-0.008-0.271c0.007-0.358,0.048-0.715,0.104-1.063
		c0.004,0,0.008,0,0.01,0c0.125-0.734,0.352-1.437,0.668-2.086c-0.011,0-0.021,0-0.031,0c1.269-2.668,4.012-4.494,7.152-4.427
		c1.131,0.023,2.197,0.298,3.157,0.755v0.063c0.962,0.459,1.812,1.108,2.505,1.901v-0.061c1.223,1.402,1.955,3.24,1.913,5.242
		C35.789,130.475,32.243,133.873,27.977,133.783z M45,141.752l-2.333,2.236l-7.771-8.105l2.332-2.236L45,141.752z M16.832,116.084
		c-1.799,0-3.598,0-5.396,0c-1.297,0-1.297-2.086,0-2.086c1.799,0,3.598,0,5.396,0C18.129,113.998,18.129,116.084,16.832,116.084z
		 M11.436,119.459c-1.297,0-1.297-2.088,0-2.088c1.799,0,3.598,0,5.396,0c1.297,0,1.297,2.088,0,2.088
		C15.033,119.459,13.234,119.459,11.436,119.459z M33.967,122.586v7.021c-0.613,1.012-1.479,1.85-2.503,2.432v-11.877
		C32.495,120.738,33.355,121.58,33.967,122.586z M31.464,136.859c0.886-0.275,1.724-0.672,2.503-1.148v7.916H5v-37.615h23.585
		l5.382,5.219v5.248c-0.787-0.479-1.626-0.858-2.503-1.131v-2.854h-4.169v-3.978H7.504v32.607h23.959L31.464,136.859L31.464,136.859
		z M26.568,131.938c-0.338,0-1.025,0-1.936,0c-0.873-0.524-1.619-1.242-2.18-2.088c1.954,0,3.541,0,4.111,0
		C27.863,129.85,27.863,131.938,26.568,131.938z M11.152,129.85c0.781,0,3.455,0,6.375,0c0.256,0.73,0.584,1.428,0.988,2.088
		c-3.285,0-6.494,0-7.363,0C9.855,131.938,9.855,129.85,11.152,129.85z M26.568,128.191c-0.646,0-2.596,0-4.907,0
		c-0.213-0.658-0.329-1.359-0.329-2.088c2.453,0,4.557,0,5.234,0C27.863,126.104,27.863,128.191,26.568,128.191z M11.152,126.104
		c0.725,0,3.07,0,5.734,0c-0.002,0.709,0.059,1.406,0.188,2.088c-2.74,0-5.182,0-5.922,0
		C9.855,128.191,9.855,126.104,11.152,126.104z M26.568,124.818c-0.668,0-2.713,0-5.11,0c0.146-0.744,0.409-1.447,0.776-2.088
		c2.056,0,3.741,0,4.334,0C27.863,122.73,27.863,124.818,26.568,124.818z M11.152,122.73c0.771,0,3.382,0,6.254,0
		c-0.215,0.672-0.368,1.371-0.452,2.088c-2.692,0-5.072,0-5.802,0C9.855,124.818,9.855,122.73,11.152,122.73z M21.171,137.377
		c-1.297,0-1.297-2.086,0-2.086c0.153,0,0.306,0,0.459,0c1.563,1.113,3.379,1.803,5.306,2.008c-0.105,0.043-0.229,0.078-0.367,0.078
		C24.768,137.377,22.971,137.377,21.171,137.377z"/>
</g>
<g>
	<g>
		<path fill="#3D3535" d="M5,58.75v32.5h40v-32.5H5z M42.5,88.75h-35v-25h35V88.75z"/>
		<rect x="27.5" y="68.75" fill="#3D3535" width="12.5" height="2.5"/>
		<rect x="27.5" y="73.75" fill="#3D3535" width="12.5" height="2.5"/>
		<rect x="27.5" y="78.75" fill="#3D3535" width="7.5" height="2.5"/>
		<rect x="10" y="68.75" fill="#3D3535" width="12.5" height="12.5"/>
	</g>
</g>
<g>
	<g>
		<path fill="#3D3535" d="M6.604,193.865h36.791c0.492,0,0.951-0.201,1.258-0.551c0.269-0.303,0.388-0.688,0.334-1.082
			c-0.86-6.725-4.993-12.322-10.651-15.313c-2.394,2.395-5.69,3.873-9.333,3.873c-3.641,0-6.942-1.479-9.334-3.873
			c-5.658,2.986-9.792,8.588-10.654,15.313c-0.051,0.395,0.068,0.779,0.334,1.082C5.653,193.666,6.111,193.865,6.604,193.865z"/>
		<path fill="#3D3535" d="M16.708,175.469c0.214,0.227,0.438,0.441,0.671,0.648c2.027,1.813,4.693,2.926,7.62,2.926
			c2.926,0,5.592-1.113,7.62-2.926c0.23-0.209,0.457-0.424,0.671-0.648c0.214-0.224,0.422-0.455,0.619-0.695
			c1.588-1.967,2.545-4.465,2.545-7.184c0-6.316-5.14-11.455-11.454-11.455c-6.315,0-11.454,5.139-11.454,11.453
			c0,2.721,0.957,5.219,2.545,7.186C16.286,175.016,16.495,175.244,16.708,175.469z"/>
	</g>
</g>
<g>
	<path fill="#FFFFFF" stroke="#3D3535" stroke-miterlimit="10" d="M47.5,181.922c0,0.725-0.588,1.313-1.313,1.313h-4.875v4.875
		c0,0.727-0.588,1.313-1.313,1.313c-0.362,0-0.69-0.146-0.929-0.385s-0.385-0.564-0.385-0.928v-4.877h-4.875
		c-0.362,0-0.688-0.146-0.929-0.383c-0.237-0.238-0.384-0.565-0.384-0.929c0-0.726,0.588-1.313,1.313-1.313h4.875v-4.873
		c0-0.726,0.588-1.313,1.313-1.313s1.313,0.587,1.313,1.313v4.875h4.875C46.912,180.609,47.5,181.197,47.5,181.922z"/>
</g>
</svg>
