<?xml version="1.0" encoding="utf-8"?>
<!-- Generator: Adobe Illustrator 16.0.0, SVG Export Plug-In . SVG Version: 6.00 Build 0)  -->
<!DOCTYPE svg PUBLIC "-//W3C//DTD SVG 1.1//EN" "http://www.w3.org/Graphics/SVG/1.1/DTD/svg11.dtd">
<svg version="1.1" id="Layer_1" xmlns="http://www.w3.org/2000/svg" xmlns:xlink="http://www.w3.org/1999/xlink" x="0px" y="0px"
	 width="100px" height="100px" viewBox="0 0 100 100" enable-background="new 0 0 100 100" xml:space="preserve">
<g>
	<g>
		<path fill="#3D3535" d="M30.38,10c0.92,0,1.842,0.339,2.561,1.022c1.488,1.415,1.547,3.769,0.133,5.257l-8.317,8.747l8.309,8.687
			c1.418,1.483,1.367,3.837-0.117,5.256c-1.484,1.42-3.837,1.367-5.256-0.117l-10.76-11.247c-1.371-1.435-1.374-3.693-0.008-5.132
			l10.759-11.318C28.416,10.388,29.396,10,30.38,10z"/>
	</g>
</g>
<g>
	<g>
		<path fill="#FF5252" d="M80.381,10c0.92,0,1.841,0.339,2.561,1.022c1.487,1.415,1.547,3.769,0.133,5.257l-8.316,8.747l8.308,8.687
			c1.419,1.483,1.366,3.836-0.116,5.256c-1.484,1.42-3.838,1.368-5.257-0.117L66.934,27.605c-1.371-1.435-1.375-3.693-0.009-5.132
			l10.759-11.318C78.416,10.388,79.396,10,80.381,10z"/>
	</g>
</g>
<g>
	<g>
		<path fill="#3D3535" d="M19.621,89.998c-0.92,0-1.841-0.339-2.561-1.021c-1.487-1.415-1.547-3.769-0.133-5.257l8.316-8.748
			l-8.308-8.686c-1.418-1.483-1.367-3.837,0.117-5.256c1.484-1.421,3.837-1.368,5.256,0.116l10.759,11.247
			c1.372,1.435,1.375,3.692,0.009,5.132L22.317,88.843C21.585,89.609,20.605,89.998,19.621,89.998z"/>
	</g>
</g>
<g>
	<g>
		<path fill="#FF5252" d="M69.619,90c-0.92,0-1.841-0.339-2.561-1.022c-1.487-1.414-1.547-3.768-0.133-5.256l8.316-8.748
			l-8.308-8.686c-1.419-1.483-1.366-3.836,0.116-5.256c1.484-1.421,3.838-1.368,5.257,0.116l10.759,11.247
			c1.372,1.435,1.375,3.692,0.009,5.132L72.316,88.845C71.584,89.611,70.604,90,69.619,90z"/>
	</g>
</g>
</svg>
