<?xml version="1.0" encoding="utf-8"?>
<!-- Generator: Adobe Illustrator 16.0.0, SVG Export Plug-In . SVG Version: 6.00 Build 0)  -->
<!DOCTYPE svg PUBLIC "-//W3C//DTD SVG 1.1//EN" "http://www.w3.org/Graphics/SVG/1.1/DTD/svg11.dtd">
<svg version="1.1" id="Layer_1" xmlns="http://www.w3.org/2000/svg" xmlns:xlink="http://www.w3.org/1999/xlink" x="0px" y="0px"
	 width="300px" height="100px" viewBox="0 0 300 100" enable-background="new 0 0 300 100" xml:space="preserve">
<g>
	<path fill="#3D3535" d="M66.949,39.082c0,15.998,3.556,28.441,21.331,35.551c-8.888-10.664-10.665-21.33-7.11-35.551h10.663
		L74.06,17.753L56.284,39.082H66.949z"/>
</g>
<g>
	<path fill="#3D3535" d="M128.752,60.729c-0.247,0-0.538-0.011-0.873-0.035c-0.335-0.023-0.626-0.035-0.873-0.035
		c-0.271,0-1.07,0.088-2.398,0.265l0.335,10.42l0.018,0.776l0.018,0.899c0.047,2.574-0.57,3.861-1.851,3.861
		c-0.471,0-0.879-0.153-1.226-0.459s-0.52-0.688-0.52-1.146c0-0.447,0.018-1.117,0.053-2.011c0.035-0.893,0.053-1.563,0.053-2.01
		l-0.353-10.297c-0.858-0.035-2.163-0.135-3.914-0.3c-1.046-0.141-1.569-0.723-1.569-1.745c0-0.518,0.159-0.946,0.476-1.287
		s0.723-0.512,1.217-0.512l3.703,0.3c0-0.6-0.027-1.402-0.08-2.406c-0.053-1.006-0.079-1.73-0.079-2.178
		c0-0.494,0.17-0.902,0.511-1.226c0.341-0.323,0.758-0.485,1.252-0.485c1.058,0,1.675,0.864,1.851,2.592
		c0.035,0.436,0.053,0.959,0.053,1.57l-0.035,1.021l-0.018,1.094c1.458-0.188,2.292-0.282,2.504-0.282
		c1.222,0,2.021,0.06,2.397,0.177c0.717,0.234,1.076,0.787,1.076,1.657c0,0.518-0.162,0.943-0.485,1.278
		S129.257,60.729,128.752,60.729z"/>
	<path fill="#3D3535" d="M147.688,62.722c-0.082,1.469-0.67,2.203-1.763,2.203c-1.011,0-1.516-0.581-1.516-1.745
		c0-0.224-0.018-0.635-0.053-1.234l-0.053-1.48c-1.857,0.223-3.344,0.746-4.46,1.568c-1.046,0.765-1.916,1.916-2.61,3.456
		l0.036,9.662c0,1.188-0.582,1.781-1.746,1.781c-1.035,0-1.552-0.594-1.552-1.781V62.774c0-0.388,0.015-0.97,0.044-1.746
		c0.029-0.775,0.044-1.357,0.044-1.745c0-1.188,0.517-1.781,1.551-1.781c1.152,0,1.734,0.977,1.746,2.927
		c2.257-2.174,4.761-3.261,7.511-3.261c0.952,0,1.663,0.357,2.133,1.074c0.47,0.718,0.705,1.799,0.705,3.245
		C147.706,62.099,147.7,62.51,147.688,62.722z"/>
	<path fill="#3D3535" d="M166.695,60.023l-6.102,13.188c-1.504,3.209-2.656,5.895-3.455,8.058l-1.164,3.421
		c-0.305,0.846-0.834,1.27-1.586,1.27c-0.494,0-0.92-0.162-1.279-0.485c-0.357-0.323-0.537-0.726-0.537-1.208
		c0-1.175,1.27-4.578,3.809-10.208l-6.313-12.148l-0.793-1.287c-0.317-0.54-0.476-0.993-0.476-1.357c0-0.482,0.185-0.905,0.555-1.27
		s0.785-0.547,1.243-0.547c0.541,0,0.957,0.206,1.252,0.617c1.998,2.774,4.143,6.724,6.436,11.849l2.609-6.083
		c0.939-2.104,1.846-3.914,2.715-5.431c0.377-0.658,0.869-0.987,1.48-0.987c0.482,0,0.908,0.17,1.279,0.512
		c0.369,0.341,0.555,0.746,0.555,1.216C166.924,59.4,166.848,59.694,166.695,60.023z"/>
	<path fill="#3D3535" d="M203.298,77.215c-0.964,0-1.528-0.512-1.692-1.534c-0.212-1.293-0.423-3.115-0.635-5.466l-0.6-5.466
		c-0.117-0.812-0.317-1.604-0.6-2.381c-0.399-1.058-0.835-1.586-1.305-1.586c-0.435,0-1.246,0.37-2.433,1.11
		c-1.129,0.682-1.869,1.229-2.222,1.64c-0.012,1.105,0.018,2.21,0.088,3.314l0.529,4.708c0.223,1.857,0.335,3.392,0.335,4.602
		c0,0.518-0.162,0.943-0.485,1.278s-0.737,0.503-1.243,0.503c-0.505,0-0.92-0.168-1.243-0.503s-0.484-0.761-0.484-1.278
		c0-1.422-0.145-3.523-0.432-6.303c-0.289-2.78-0.433-4.881-0.433-6.304c0-1.246-0.176-2.216-0.528-2.909
		c-0.823,0.376-1.658,0.987-2.504,1.834l-2.081,2.327c-0.188,0.282-0.487,0.652-0.898,1.11c0,0.706-0.065,1.746-0.194,3.121
		c-0.13,1.375-0.194,2.393-0.194,3.051c0,0.353,0.056,0.846,0.168,1.48c0.111,0.635,0.167,1.094,0.167,1.375
		c0,0.482-0.179,0.888-0.537,1.217c-0.359,0.329-0.779,0.494-1.261,0.494c-1.329,0-1.992-1.511-1.992-4.531
		c0-0.705,0.064-1.758,0.193-3.156c0.13-1.398,0.194-2.451,0.194-3.156c0-0.623-0.056-1.558-0.168-2.804
		c-0.111-1.245-0.167-2.186-0.167-2.82c0-2.669,0.6-4.003,1.798-4.003c0.459,0,0.879,0.2,1.261,0.6
		c0.382,0.4,0.573,0.835,0.573,1.305c0,0.224-0.029,0.57-0.088,1.04c-0.06,0.471-0.088,0.829-0.088,1.076l0.035,1.851
		c0.61-1.257,1.51-2.395,2.697-3.411s2.198-1.525,3.032-1.525c1.846,0,3.115,0.917,3.809,2.751c0.646-0.858,1.417-1.502,2.31-1.932
		c0.894-0.428,1.916-0.643,3.068-0.643c1.963,0,3.303,1.058,4.02,3.174c0.142,0.423,0.382,2.074,0.724,4.954
		c0.328,2.021,0.752,5.39,1.27,10.103c0.035,0.471-0.124,0.87-0.477,1.199S203.803,77.215,203.298,77.215z"/>
	<path fill="#3D3535" d="M217.191,76.563c-2.656,0-4.808-0.665-6.453-1.993c-1.798-1.469-2.697-3.526-2.697-6.171
		c0-3.056,0.74-5.618,2.222-7.688c1.61-2.256,3.761-3.385,6.453-3.385c1.951,0,3.544,0.329,4.778,0.987
		c1.516,0.811,2.274,2.057,2.274,3.737c0,1.176-0.665,2.246-1.993,3.209c-0.588,0.424-1.833,1.082-3.737,1.976l-6.735,3.19
		c0.658,0.977,1.478,1.711,2.46,2.204c0.98,0.494,2.124,0.741,3.429,0.741c0.812,0,1.764-0.153,2.856-0.459
		c1.387-0.388,2.28-0.896,2.68-1.525c0.399-0.628,0.829-0.942,1.287-0.942c0.412,0,0.779,0.155,1.103,0.467s0.484,0.673,0.484,1.084
		c0,1.305-1.052,2.428-3.156,3.368C220.647,76.162,218.896,76.563,217.191,76.563z M216.716,60.5c-1.435,0-2.627,0.555-3.579,1.666
		c-0.952,1.11-1.664,2.783-2.134,5.016l5.413-2.574c2.127-1.034,3.644-1.933,4.549-2.697C219.954,60.97,218.537,60.5,216.716,60.5z"
		/>
	<path fill="#3D3535" d="M232.144,75.346c0,0.423-0.167,0.79-0.502,1.102s-0.715,0.468-1.138,0.468c-0.47,0-0.94-0.307-1.41-0.917
		c-0.459-0.576-0.688-1.104-0.688-1.587c0-0.423,0.167-0.787,0.502-1.094c0.335-0.305,0.72-0.458,1.155-0.458
		c0.458,0,0.928,0.306,1.41,0.917C231.92,74.353,232.144,74.875,232.144,75.346z M232.126,49.021v19.624
		c0,1.046-0.523,1.569-1.569,1.569s-1.569-0.523-1.569-1.569c0-0.481-0.015-1.202-0.044-2.16s-0.044-1.672-0.044-2.142
		c0-1.705,0.015-4.259,0.044-7.661c0.029-3.403,0.044-5.957,0.044-7.661c0-1.046,0.523-1.569,1.569-1.569
		S232.126,47.976,232.126,49.021z"/>
</g>
</svg>
