<?xml version="1.0" encoding="utf-8"?>
<!-- Generator: Adobe Illustrator 16.0.0, SVG Export Plug-In . SVG Version: 6.00 Build 0)  -->
<!DOCTYPE svg PUBLIC "-//W3C//DTD SVG 1.1//EN" "http://www.w3.org/Graphics/SVG/1.1/DTD/svg11.dtd">
<svg version="1.1" id="Layer_1" xmlns="http://www.w3.org/2000/svg" xmlns:xlink="http://www.w3.org/1999/xlink" x="0px" y="0px"
	 width="100px" height="200px" viewBox="0 0 100 200" enable-background="new 0 0 100 200" xml:space="preserve">
<g>
	<path fill="#3D3535" d="M17.969,20.313l4.688-3.75h-8.896c-2.077,0-3.761,1.688-3.761,3.734v13.156
		c0,2.063,1.682,3.734,3.761,3.734H32.49c2.077,0,3.761-1.688,3.761-3.734v-6.766l-3.75,3v3.75H13.75V20.313H17.969z"/>
	<path fill="#3D3535" d="M30.625,16.52c-6.636,0.065-13.187,5.857-13.187,13.211c3.176-3.094,6.938-5.88,13.187-5.654v3.736
		l9.375-7.5l-9.375-7.5V16.52z"/>
</g>
<g id="Search">
	<path fill="#3D3535" d="M39.266,185.721l-6.518-6.518c-0.034-0.035-0.074-0.059-0.111-0.092c1.283-1.944,2.031-4.273,2.031-6.777
		c0-6.813-5.521-12.334-12.334-12.334C15.522,160,10,165.521,10,172.334s5.522,12.334,12.334,12.334
		c2.504,0,4.832-0.749,6.777-2.031c0.033,0.036,0.057,0.076,0.092,0.111l6.518,6.518c0.979,0.979,2.566,0.979,3.545,0
		C40.244,188.287,40.244,186.699,39.266,185.721z M22.334,180.393c-4.45,0-8.059-3.605-8.059-8.059s3.608-8.059,8.059-8.059
		s8.059,3.604,8.059,8.059C30.393,176.784,26.784,180.393,22.334,180.393z"/>
</g>
<g>
	<path fill="#EF5455" d="M67.969,20.313l4.688-3.75h-8.896c-2.078,0-3.764,1.688-3.764,3.734v13.156
		c0,2.063,1.684,3.734,3.764,3.734H82.49c2.076,0,3.761-1.688,3.761-3.734v-6.766l-3.75,3v3.75H63.75V20.313H67.969z"/>
	<path fill="#EF5455" d="M80.625,16.52c-6.637,0.065-13.188,5.857-13.188,13.211c3.176-3.094,6.938-5.88,13.188-5.654v3.736
		l9.375-7.5l-9.375-7.5V16.52z"/>
</g>
<g id="Search_1_">
	<path fill="#EF5455" d="M89.266,185.721l-6.518-6.518c-0.034-0.035-0.074-0.059-0.111-0.092c1.283-1.944,2.031-4.273,2.031-6.777
		c0-6.813-5.521-12.334-12.334-12.334S60,165.521,60,172.334s5.521,12.334,12.334,12.334c2.504,0,4.832-0.749,6.777-2.031
		c0.033,0.036,0.057,0.076,0.092,0.111l6.518,6.518c0.979,0.979,2.566,0.979,3.545,0C90.244,188.287,90.244,186.699,89.266,185.721z
		 M72.334,180.393c-4.45,0-8.059-3.605-8.059-8.059s3.605-8.059,8.059-8.059s8.059,3.604,8.059,8.059
		C80.393,176.784,76.784,180.393,72.334,180.393z"/>
</g>
<g>
	<g>
		<circle fill="#3D3535" cx="13.409" cy="75" r="3.409"/>
		<circle fill="#3D3535" cx="25" cy="75" r="3.409"/>
		<circle fill="#3D3535" cx="36.591" cy="75" r="3.409"/>
	</g>
</g>
<g>
	<g>
		<circle fill="#EF5455" cx="63.409" cy="75" r="3.409"/>
		<circle fill="#EF5455" cx="75" cy="75" r="3.409"/>
		<circle fill="#EF5455" cx="86.591" cy="75" r="3.409"/>
	</g>
</g>
<g>
	<path fill="#3D3535" d="M40,125.001c0,1.449-1.175,2.625-2.626,2.625h-9.75v9.749c0,1.451-1.175,2.626-2.625,2.626
		c-0.725,0-1.381-0.294-1.856-0.769c-0.475-0.477-0.769-1.133-0.769-1.856v-9.751h-9.75c-0.725,0-1.38-0.293-1.856-0.77
		c-0.475-0.475-0.768-1.131-0.768-1.854c0-1.45,1.175-2.626,2.625-2.626h9.749v-9.749c0-1.45,1.176-2.626,2.626-2.626
		s2.624,1.174,2.625,2.625v9.75h9.75C38.826,122.376,39.999,123.551,40,125.001z"/>
</g>
<g>
	<path fill="#EF5455" d="M90,125c0,1.449-1.176,2.625-2.626,2.625h-9.749v9.75c0,1.451-1.176,2.625-2.625,2.625
		c-0.727,0-1.382-0.293-1.855-0.768c-0.477-0.476-0.77-1.131-0.77-1.857v-9.75h-9.751c-0.726,0-1.38-0.293-1.856-0.77
		C60.293,126.383,60,125.727,60,125c0-1.449,1.175-2.625,2.625-2.625h9.75v-9.75c0-1.449,1.176-2.625,2.625-2.625
		c1.45,0,2.625,1.174,2.625,2.625v9.75h9.751C88.826,122.375,89.999,123.551,90,125z"/>
</g>
</svg>
