<?xml version="1.0" encoding="utf-8"?>
<!-- Generator: Adobe Illustrator 16.0.0, SVG Export Plug-In . SVG Version: 6.00 Build 0)  -->
<!DOCTYPE svg PUBLIC "-//W3C//DTD SVG 1.1//EN" "http://www.w3.org/Graphics/SVG/1.1/DTD/svg11.dtd">
<svg version="1.1" id="Layer_1" xmlns="http://www.w3.org/2000/svg" xmlns:xlink="http://www.w3.org/1999/xlink" x="0px" y="0px"
	 width="150px" height="150px" viewBox="0 0 150 150" enable-background="new 0 0 150 150" xml:space="preserve">
<g>
	<circle fill="#F3F3F3" cx="75" cy="75" r="75"/>
	<g>
		<g id="_x36__30_">
			<g>
				<path fill="#FF5252" d="M78.779,92.555c-1.102,1.096-1.102,2.877,0,3.979c1.096,1.096,2.877,1.096,3.973,0l19.406-19.406
					c0.583-0.586,0.832-1.362,0.797-2.13c0.038-0.768-0.211-1.545-0.797-2.127L82.752,53.462c-1.096-1.097-2.877-1.097-3.973,0
					c-1.102,1.099-1.102,2.881,0,3.976l14.745,14.748h-60.71C31.263,72.189,30,73.443,30,75c0,1.559,1.263,2.813,2.814,2.813h60.71
					L78.779,92.555z M108.75,35.625H52.5c-6.209,0-11.25,5.038-11.25,11.25v11.25h5.625v-11.25c0-3.105,2.517-5.625,5.625-5.625
					h56.25c3.108,0,5.625,2.52,5.625,5.625v56.25c0,3.1-2.517,5.625-5.625,5.625H52.5c-3.108,0-5.625-2.52-5.625-5.625v-11.25H41.25
					v11.25c0,6.211,5.041,11.25,11.25,11.25h56.25c6.211,0,11.25-5.039,11.25-11.25v-56.25C120,40.663,114.961,35.625,108.75,35.625
					z"/>
			</g>
		</g>
	</g>
</g>
</svg>
