<?xml version="1.0" encoding="UTF-8" standalone="no"?>
<svg
   xmlns:dc="http://purl.org/dc/elements/1.1/"
   xmlns:cc="http://creativecommons.org/ns#"
   xmlns:rdf="http://www.w3.org/1999/02/22-rdf-syntax-ns#"
   xmlns:svg="http://www.w3.org/2000/svg"
   xmlns="http://www.w3.org/2000/svg"
   xmlns:sodipodi="http://sodipodi.sourceforge.net/DTD/sodipodi-0.dtd"
   xmlns:inkscape="http://www.inkscape.org/namespaces/inkscape"
   version="1.1"
   width="1e3"
   height="328.56"
   id="svg2"
   inkscape:version="0.48.4 r9939"
   sodipodi:docname="Google-logo.svg">
  <metadata
     id="metadata3047">
    <rdf:RDF>
      <cc:Work
         rdf:about="">
        <dc:format>image/svg+xml</dc:format>
        <dc:type
           rdf:resource="http://purl.org/dc/dcmitype/StillImage" />
      </cc:Work>
    </rdf:RDF>
  </metadata>
  <defs
     id="defs3045" />
  <sodipodi:namedview
     pagecolor="#ffffff"
     bordercolor="#666666"
     borderopacity="1"
     objecttolerance="10"
     gridtolerance="10"
     guidetolerance="10"
     inkscape:pageopacity="0"
     inkscape:pageshadow="2"
     inkscape:window-width="640"
     inkscape:window-height="480"
     id="namedview3043"
     showgrid="false"
     inkscape:snap-bbox="true"
     inkscape:bbox-nodes="true"
     inkscape:zoom="0.307"
     inkscape:cx="500"
     inkscape:cy="555.15948"
     inkscape:window-x="75"
     inkscape:window-y="34"
     inkscape:window-maximized="0"
     inkscape:current-layer="svg2" />
  <path
     style="fill:#4285f4;fill-opacity:1"
     d="m 282.64243,147.00992 h -96.8055 v 25.3033 h 68.65576 c -3.39173,35.48211 -36.90518,50.61391 -68.53949,50.61391 -40.47279,0 -75.79015,-28.05008 -75.79015,-67.36525 0,-38.29912 33.66642,-67.794642 75.879,-67.794642 32.56774,0 51.7586,18.287492 51.7586,18.287492 l 20.11349,-18.346742 c 0,0 -25.81619,-25.315737 -72.90018,-25.315737 -59.95597,-7.32e-4 -106.339062,44.572459 -106.339062,92.717559 0,47.1766 43.630982,93.17841 107.867082,93.17841 56.49632,0 97.85187,-34.09081 97.85187,-84.50282 0,-10.63528 -1.753,-16.78207 -1.753,-16.78207 z"
     id="path2998"
     inkscape:connector-curvature="0" />
  <path
     style="fill:#ea4335;fill-opacity:1"
     d="m 361.94206,128.68512 c -39.72206,0 -68.18904,27.35443 -68.18904,59.25731 0,32.37471 27.61161,60.23752 68.65575,60.23752 37.15597,0 67.5961,-25.01508 67.5961,-59.54186 0,-39.57266 -35.40871,-59.95297 -68.06281,-59.95297 z m 0.39498,23.4687 c 19.53384,0 38.04456,13.91093 38.04456,36.32627 0,21.93986 -18.43183,36.24726 -38.13425,36.24726 -21.64815,0 -38.72635,-15.27225 -38.72635,-36.42136 0,-20.69558 16.86643,-36.15217 38.81604,-36.15217 z"
     id="path3000"
     inkscape:connector-curvature="0" />
  <path
     style="fill:#fbbc05;fill-opacity:1"
     d="m 510.24373,128.68512 c -39.72206,0 -68.18904,27.35443 -68.18904,59.25731 0,32.37471 27.61162,60.23752 68.65575,60.23752 37.15597,0 67.5961,-25.01508 67.5961,-59.54186 0,-39.57266 -35.4087,-59.95297 -68.06281,-59.95297 z m 0.39498,23.4687 c 19.53383,0 38.04455,13.91093 38.04455,36.32627 0,21.93986 -18.43183,36.24726 -38.13424,36.24726 -21.64816,0 -38.72635,-15.27225 -38.72635,-36.42136 0,-20.69558 16.86643,-36.15217 38.81604,-36.15217 z"
     id="path3005"
     inkscape:connector-curvature="0" />
  <path
     style="fill:#4285f4;fill-opacity:1"
     d="m 655.70527,128.74803 c -36.46006,0 -65.11887,28.12835 -65.11887,59.69987 0,35.96271 33.22545,59.81106 64.49022,59.81106 19.33203,0 29.61133,-6.75943 37.20081,-14.51807 v 11.78153 c 0,20.61365 -14.20899,32.9577 -35.65618,32.9577 -20.71888,0 -31.11113,-13.57004 -34.72275,-21.27054 l -26.06864,9.59947 c 9.24788,17.22462 27.8649,35.18732 61.00731,35.18732 36.25078,0 63.87984,-20.11258 63.87984,-62.29376 V 132.34043 h -28.43875 v 10.12102 c -8.74463,-8.30032 -20.7031,-13.71195 -36.57299,-13.71195 z m 2.63917,23.42115 c 17.87542,0 36.23085,13.44496 36.23085,36.40527 0,23.33776 -18.3164,36.19971 -36.62615,36.19971 -19.4375,0 -37.52386,-13.90214 -37.52386,-35.97807 0,-22.93836 18.78394,-36.62691 37.91832,-36.62691 z"
     id="path3007"
     inkscape:connector-curvature="0" />
  <path
     style="fill:#ea4335;fill-opacity:1"
     d="m 847.1654,128.60539 c -34.39223,0 -63.26946,24.10291 -63.26946,59.66841 0,37.63346 32.1874,59.95297 66.57299,59.95297 28.69867,0 46.31251,-13.82973 56.82434,-26.2206 l -23.44774,-13.74268 c -6.08454,8.31788 -16.25688,16.44703 -33.23293,16.44703 -19.06878,0 -27.83667,-9.19787 -33.26864,-18.10753 l 90.95083,-33.24227 -4.72185,-9.74211 c -8.78616,-19.0775 -29.28165,-35.00956 -56.40413,-35.00956 z m 1.18489,22.97859 c 12.39279,0 21.31182,5.80387 25.0995,12.76248 l -60.73824,22.36193 c -2.61858,-17.31239 16.00193,-35.12441 35.63874,-35.12441 z"
     id="path3011"
     inkscape:connector-curvature="0" />
  <path
     style="fill:#34a853;fill-opacity:1"
     d="m 740.53568,244.67973 h 29.87543 V 68.571227 h -29.87543 z"
     id="path3015"
     inkscape:connector-curvature="0" />
</svg>
