<?xml version="1.0" encoding="utf-8"?>
<!-- Generator: Adobe Illustrator 16.0.0, SVG Export Plug-In . SVG Version: 6.00 Build 0)  -->
<!DOCTYPE svg PUBLIC "-//W3C//DTD SVG 1.1//EN" "http://www.w3.org/Graphics/SVG/1.1/DTD/svg11.dtd">
<svg version="1.1" id="Layer_1" xmlns="http://www.w3.org/2000/svg" xmlns:xlink="http://www.w3.org/1999/xlink" x="0px" y="0px"
	 width="150px" height="150px" viewBox="0 0 150 150" enable-background="new 0 0 150 150" xml:space="preserve">
<g>
	<path fill="#F2F2F2" d="M35.859,70.84V58.945c0-1.348,0.469-2.695,1.172-3.984C41.25,62.227,56.602,67.617,75,67.617
		c18.398,0,33.75-5.391,37.969-12.656c0.762,1.289,1.172,2.637,1.172,3.984V70.84c0,9.258-17.52,16.699-39.141,16.699
		S35.859,80.098,35.859,70.84z M75,112.148c21.621,0,39.141-7.5,39.141-16.699V83.555c0-1.406-0.41-2.695-1.172-3.984
		C108.75,86.836,93.398,92.227,75,92.227c-18.398,0-33.75-5.391-37.969-12.656c-0.703,1.289-1.172,2.578-1.172,3.984V95.45
		C35.859,104.648,53.379,112.148,75,112.148z M75,63.574c21.621,0,39.141-7.5,39.141-16.699V34.98c0-1.348-0.41-2.578-1.055-3.809
		c-0.762,6.739-17.52,12.13-38.086,12.13c-20.566,0-37.324-5.391-38.086-12.129c-0.645,1.23-1.055,2.461-1.055,3.809v11.895
		C35.859,56.074,53.379,63.574,75,63.574z M75,39.492c21.094,0,38.145-5.625,38.145-12.598S96.094,14.297,75,14.297
		s-38.145,5.625-38.145,12.598S53.906,39.492,75,39.492z M77.695,130.781v-15.469h-5.391v15.469H15v4.922h120v-4.922H77.695z"/>
</g>
</svg>
