<?xml version="1.0" encoding="utf-8"?>
<!-- Generator: Adobe Illustrator 16.0.0, SVG Export Plug-In . SVG Version: 6.00 Build 0)  -->
<!DOCTYPE svg PUBLIC "-//W3C//DTD SVG 1.1//EN" "http://www.w3.org/Graphics/SVG/1.1/DTD/svg11.dtd">
<svg version="1.1" id="Layer_1" xmlns="http://www.w3.org/2000/svg" xmlns:xlink="http://www.w3.org/1999/xlink" x="0px" y="0px"
	 width="150px" height="900px" viewBox="0 0 150 900" enable-background="new 0 0 150 900" xml:space="preserve">
<g>
	<g id="_x36__30_">
		<g>
			<path fill="#F2F2F2" d="M80.039,98.406c-1.47,1.461-1.47,3.836,0,5.306c1.461,1.461,3.836,1.461,5.297,0l25.875-25.875
				c0.777-0.781,1.109-1.816,1.063-2.839c0.051-1.024-0.281-2.06-1.063-2.836L85.336,46.283c-1.461-1.462-3.836-1.462-5.297,0
				c-1.47,1.465-1.47,3.841,0,5.301l19.659,19.664H18.752C16.684,71.252,15,72.924,15,75c0,2.078,1.684,3.75,3.752,3.75h80.946
				L80.039,98.406z M120,22.5H45c-8.279,0-15,6.717-15,15v15h7.5v-15c0-4.14,3.356-7.5,7.5-7.5h75c4.144,0,7.5,3.36,7.5,7.5v75
				c0,4.133-3.356,7.5-7.5,7.5H45c-4.144,0-7.5-3.359-7.5-7.5v-15H30v15c0,8.281,6.721,15,15,15h75c8.281,0,15-6.719,15-15v-75
				C135,29.217,128.281,22.5,120,22.5z"/>
		</g>
	</g>
</g>
<g>
	<path fill="#F2F2F2" d="M36.313,220.888v-11.757c0-1.332,0.463-2.664,1.159-3.938c4.17,7.182,19.344,12.51,37.529,12.51
		c18.186,0,33.359-5.329,37.529-12.51c0.753,1.274,1.158,2.607,1.158,3.938v11.757c0,9.15-17.316,16.506-38.688,16.506
		C53.629,237.394,36.313,230.039,36.313,220.888z M75,261.718c21.371,0,38.688-7.413,38.688-16.506v-11.757
		c0-1.39-0.405-2.664-1.158-3.938c-4.17,7.181-19.344,12.509-37.529,12.509c-18.185,0-33.359-5.328-37.529-12.509
		c-0.695,1.274-1.159,2.548-1.159,3.938v11.758C36.313,254.305,53.629,261.718,75,261.718z M75,213.707
		c21.371,0,38.688-7.413,38.688-16.506v-11.757c0-1.333-0.405-2.548-1.043-3.765c-0.753,6.661-17.316,11.989-37.645,11.989
		c-20.328,0-36.892-5.328-37.645-11.988c-0.637,1.216-1.042,2.432-1.042,3.765v11.757C36.313,206.293,53.629,213.707,75,213.707z
		 M75,189.903c20.85,0,37.703-5.56,37.703-12.452C112.703,170.559,95.85,165,75,165s-37.703,5.56-37.703,12.452
		C37.297,184.345,54.15,189.903,75,189.903z M77.664,280.135v-15.29h-5.329v15.29H15.695V285h118.61v-4.865H77.664z"/>
</g>
<path fill="#F2F2F2" d="M129.979,382.512l-6.382-2.354c0.505-4.653,0.34-9.398-0.536-14.116l6.164-2.837
	c3.847-1.768,5.533-6.347,3.76-10.198l-3.596-7.81c-1.771-3.849-6.346-5.542-10.188-3.768l-6.173,2.846
	c-3.016-3.735-6.514-6.94-10.372-9.586l2.353-6.375c1.465-3.976-0.57-8.406-4.544-9.873l-8.068-2.985
	c-3.85-1.415-8.448,0.703-9.872,4.548l-2.354,6.381c-4.65-0.5-9.396-0.334-14.111,0.534l-2.841-6.159
	c-1.772-3.85-6.344-5.54-10.193-3.766l-7.813,3.597c-3.847,1.774-5.537,6.35-3.768,10.196l2.845,6.162
	c-3.729,3.02-6.941,6.52-9.586,10.384l-6.371-2.355c-3.846-1.432-8.452,0.689-9.875,4.54l-2.978,8.074
	c-0.712,1.927-0.628,4.014,0.227,5.877c0.866,1.863,2.4,3.283,4.319,3.984l6.382,2.362c-0.508,4.647-0.342,9.399,0.534,14.114
	l-6.164,2.838c-3.85,1.774-5.535,6.344-3.764,10.188l3.598,7.815c1.772,3.844,6.345,5.537,10.191,3.764l6.167-2.842
	c3.015,3.735,6.515,6.941,10.381,9.586l-2.356,6.376c-0.716,1.922-0.632,4.009,0.228,5.875c0.854,1.863,2.391,3.285,4.313,4
	l8.07,2.977c1.923,0.711,4.013,0.63,5.877-0.225c1.866-0.859,3.282-2.395,3.99-4.319l2.359-6.384
	c4.649,0.506,9.394,0.342,14.116-0.533l2.835,6.164c1.773,3.841,6.35,5.538,10.194,3.762l7.813-3.597
	c3.853-1.776,5.536-6.344,3.764-10.192l-2.841-6.164c3.731-3.021,6.942-6.514,9.582-10.378l6.38,2.36
	c1.927,0.712,4.018,0.627,5.884-0.233c1.857-0.858,3.273-2.394,3.984-4.314l2.982-8.071
	C135.989,388.407,133.951,383.978,129.979,382.512z M87.716,402.583c-4.026,1.852-8.299,2.793-12.701,2.793
	c-11.832,0-22.666-6.939-27.612-17.678c-7.008-15.221-0.331-33.305,14.884-40.313c4.023-1.855,8.298-2.792,12.696-2.792
	c11.83,0,22.669,6.937,27.617,17.671C109.605,377.491,102.932,395.575,87.716,402.583z"/>
<g>
	<path fill="#F2F2F2" d="M130.89,616.649H70.827c-2.266,0-4.11,1.845-4.11,4.11v22.288h-46.98c-2.616,0-4.736,2.121-4.736,4.736
		v80.83c0,2.615,2.121,4.736,4.736,4.736h80.83c2.615,0,4.736-2.121,4.736-4.736v-49.842h25.587c2.266,0,4.11-1.844,4.11-4.11
		V620.76C135,618.493,133.155,616.649,130.89,616.649z M74.937,640.2h21.584v11.067H74.937V640.2z M74.937,659.486h21.584v11.066
		H74.937V659.486z M95.83,723.878H24.472v-71.357h42.245v20.935l-13.101,13.102l-5.093-5.093c-0.512-0.512-1.257-0.712-1.956-0.524
		s-1.245,0.733-1.431,1.433l-6.872,25.647c-0.187,0.698,0.013,1.443,0.524,1.955c0.385,0.385,0.902,0.593,1.432,0.593
		c0.174,0,0.351-0.022,0.523-0.069l25.647-6.87c0.699-0.187,1.245-0.733,1.432-1.432c0.188-0.698-0.013-1.444-0.523-1.956
		l-5.094-5.093l16.375-16.375H95.83V723.878L95.83,723.878z M126.78,670.553h-21.586v-11.066h21.586V670.553z M126.78,651.268
		h-21.586V640.2h21.586V651.268z"/>
</g>
<g>
	<path fill="#F2F2F2" d="M123.728,765H89.912c-6.2,0-14.859,3.587-19.243,7.971l-52.382,52.381c-4.384,4.384-4.384,11.558,0,15.941
		l40.419,40.419c4.383,4.384,11.557,4.384,15.941,0l52.381-52.382c4.384-4.384,7.971-13.043,7.971-19.242v-33.815
		C135,770.072,129.928,765,123.728,765z M108.75,802.5c-6.213,0-11.25-5.036-11.25-11.25c0-6.213,5.037-11.25,11.25-11.25
		S120,785.037,120,791.25C120,797.464,114.963,802.5,108.75,802.5z"/>
</g>
<g>
	<path fill="#F2F2F2" d="M125.287,495.897c-0.063-3.239-0.121-6.301-0.121-9.262c0-2.319-1.88-4.2-4.2-4.2
		c-17.963,0-31.64-5.162-43.04-16.246c-1.631-1.586-4.226-1.586-5.856,0c-11.398,11.084-25.073,16.246-43.035,16.246
		c-2.32,0-4.201,1.881-4.201,4.2c0,2.962-0.058,6.023-0.12,9.265c-0.576,30.149-1.364,71.441,48.909,88.867
		c0.446,0.155,0.911,0.232,1.375,0.232c0.465,0,0.93-0.077,1.375-0.232C126.65,567.342,125.862,526.049,125.287,495.897z
		 M74.998,576.342c-43.116-15.662-42.464-49.973-41.885-80.281c0.035-1.82,0.068-3.582,0.092-5.312
		c16.824-0.71,30.277-5.808,41.793-15.841c11.518,10.033,24.973,15.132,41.797,15.841c0.024,1.729,0.059,3.49,0.093,5.308
		C117.466,526.367,118.117,560.679,74.998,576.342z"/>
	<path fill="#F2F2F2" d="M89.463,510.408l-20.273,20.272l-8.651-8.651c-1.64-1.64-4.3-1.64-5.939,0c-1.641,1.641-1.641,4.301,0,5.94
		l11.621,11.621c0.82,0.819,1.895,1.229,2.97,1.229s2.15-0.41,2.97-1.229l23.242-23.242c1.641-1.64,1.641-4.3,0-5.939
		C93.763,508.769,91.103,508.768,89.463,510.408z"/>
</g>
</svg>
