<?xml version="1.0" encoding="utf-8"?>
<!-- Generator: Adobe Illustrator 16.0.0, SVG Export Plug-In . SVG Version: 6.00 Build 0)  -->
<!DOCTYPE svg PUBLIC "-//W3C//DTD SVG 1.1//EN" "http://www.w3.org/Graphics/SVG/1.1/DTD/svg11.dtd">
<svg version="1.1" id="Layer_1" xmlns="http://www.w3.org/2000/svg" xmlns:xlink="http://www.w3.org/1999/xlink" x="0px" y="0px"
	 width="150px" height="150px" viewBox="0 0 150 150" enable-background="new 0 0 150 150" xml:space="preserve">
<path fill="#F2F2F2" d="M129.978,82.511l-6.382-2.355c0.505-4.653,0.339-9.398-0.536-14.116l6.164-2.837
	c3.847-1.767,5.533-6.346,3.761-10.198l-3.597-7.81c-1.772-3.849-6.345-5.542-10.188-3.768l-6.172,2.846
	c-3.016-3.735-6.515-6.94-10.373-9.586l2.353-6.375c1.465-3.976-0.57-8.406-4.545-9.873l-8.068-2.985
	c-3.849-1.415-8.448,0.703-9.871,4.548l-2.354,6.381c-4.65-0.5-9.396-0.334-14.111,0.534l-2.84-6.159
	c-1.772-3.85-6.345-5.54-10.194-3.766l-7.812,3.597c-3.847,1.774-5.537,6.35-3.768,10.195l2.845,6.163
	c-3.729,3.02-6.941,6.519-9.586,10.383l-6.371-2.355c-3.845-1.432-8.451,0.689-9.874,4.54l-2.978,8.074
	c-0.712,1.926-0.628,4.013,0.227,5.877c0.866,1.863,2.4,3.282,4.319,3.983l6.381,2.363c-0.507,4.647-0.341,9.399,0.535,14.114
	l-6.164,2.838c-3.85,1.774-5.535,6.343-3.764,10.188l3.598,7.816c1.772,3.843,6.345,5.537,10.191,3.763l6.167-2.841
	c3.015,3.735,6.515,6.941,10.381,9.586l-2.356,6.376c-0.716,1.922-0.632,4.009,0.228,5.876c0.854,1.862,2.391,3.285,4.313,4
	l8.07,2.976c1.924,0.711,4.013,0.63,5.877-0.224c1.866-0.86,3.282-2.396,3.99-4.32l2.36-6.384c4.649,0.507,9.394,0.342,14.115-0.532
	l2.835,6.163c1.772,3.842,6.349,5.538,10.195,3.762l7.813-3.597c3.852-1.776,5.536-6.345,3.762-10.192l-2.839-6.164
	c3.73-3.021,6.942-6.515,9.582-10.379l6.38,2.36c1.927,0.712,4.016,0.627,5.883-0.233c1.858-0.857,3.273-2.394,3.985-4.314
	l2.982-8.071C135.989,88.406,133.95,83.977,129.978,82.511z M87.716,102.581c-4.027,1.853-8.299,2.794-12.701,2.794
	c-11.831,0-22.665-6.939-27.612-17.678c-7.008-15.221-0.331-33.305,14.884-40.312c4.023-1.856,8.298-2.792,12.696-2.792
	c11.829,0,22.67,6.936,27.617,17.67C109.605,77.49,102.931,95.574,87.716,102.581z"/>
</svg>
