<?xml version="1.0" encoding="UTF-8" standalone="no"?>
<!-- Generator: Adobe Illustrator 16.0.0, SVG Export Plug-In . SVG Version: 6.00 Build 0)  -->

<svg
   xmlns:dc="http://purl.org/dc/elements/1.1/"
   xmlns:cc="http://creativecommons.org/ns#"
   xmlns:rdf="http://www.w3.org/1999/02/22-rdf-syntax-ns#"
   xmlns:svg="http://www.w3.org/2000/svg"
   xmlns="http://www.w3.org/2000/svg"
   xmlns:sodipodi="http://sodipodi.sourceforge.net/DTD/sodipodi-0.dtd"
   xmlns:inkscape="http://www.inkscape.org/namespaces/inkscape"
   version="1.1"
   id="Capa_1"
   x="0px"
   y="0px"
   width="90px"
   height="90px"
   viewBox="0 0 90 90"
   style="enable-background:new 0 0 90 90;"
   xml:space="preserve"
   inkscape:version="0.48.4 r9939"
   sodipodi:docname="facebook-login-button.svg"><metadata
     id="metadata40"><rdf:RDF><cc:Work
         rdf:about=""><dc:format>image/svg+xml</dc:format><dc:type
           rdf:resource="http://purl.org/dc/dcmitype/StillImage" /></cc:Work></rdf:RDF></metadata><defs
     id="defs38" /><sodipodi:namedview
     pagecolor="#ffffff"
     bordercolor="#666666"
     borderopacity="1"
     objecttolerance="10"
     gridtolerance="10"
     guidetolerance="10"
     inkscape:pageopacity="0"
     inkscape:pageshadow="2"
     inkscape:window-width="753"
     inkscape:window-height="703"
     id="namedview36"
     showgrid="false"
     inkscape:zoom="2.6222222"
     inkscape:cx="112.11864"
     inkscape:cy="45"
     inkscape:window-x="75"
     inkscape:window-y="34"
     inkscape:window-maximized="0"
     inkscape:current-layer="Capa_1" /><g
     id="g3"
     style="fill:#2b0000"><path
       id="Facebook__x28_alt_x29_"
       d="M90,15.001C90,7.119,82.884,0,75,0H15C7.116,0,0,7.119,0,15.001v59.998   C0,82.881,7.116,90,15.001,90H45V56H34V41h11v-5.844C45,25.077,52.568,16,61.875,16H74v15H61.875C60.548,31,59,32.611,59,35.024V41   h15v15H59v34h16c7.884,0,15-7.119,15-15.001V15.001z"
       style="fill:#2b0000" /></g><g
     id="g6" /><g
     id="g8" /><g
     id="g10" /><g
     id="g12" /><g
     id="g14" /><g
     id="g16" /><g
     id="g18" /><g
     id="g20" /><g
     id="g22" /><g
     id="g24" /><g
     id="g26" /><g
     id="g28" /><g
     id="g30" /><g
     id="g32" /><g
     id="g34" /><path
     style="fill:#3b5998;fill-opacity:1"
     d="M 11.114742,89.141762 C 8.3720902,88.131348 6.5677359,86.991067 4.6850446,85.078445 2.3812006,82.737976 0.95783106,79.987832 0.45218502,76.899985 -0.05437156,73.806578 -0.04676644,15.70203 0.46054518,13.026986 1.6782615,6.6059931 6.6233498,1.6495441 12.999085,0.45964083 c 2.713158,-0.50635662 60.812848,-0.51313557 63.9009,-0.007456 4.850062,0.79421516 9.243305,4.16291856 11.420314,8.75700476 l 1.183938,2.4984373 0,33.376664 0,33.37666 -1.233164,2.504914 c -1.505276,3.057654 -4.573487,6.076792 -7.632354,7.510279 -2.175762,1.019639 -2.272988,1.029028 -11.823041,1.141775 l -9.629237,0.113687 0,-16.798009 0,-16.798004 7.43644,0 7.436441,0 0,-7.627118 0,-7.627119 -7.436441,0 -7.43644,0 0,-3.184618 c 0,-3.52718 0.485733,-5.411499 1.540464,-5.975974 0.38364,-0.205319 3.540379,-0.373306 7.014974,-0.373306 l 6.317443,0 0,-7.817797 0,-7.817797 -6.431,0 c -9.217018,0 -11.516903,0.581945 -15.626982,3.954129 -4.952147,4.063076 -7.258218,9.895874 -7.294648,18.450532 l -0.01178,2.764831 -5.529661,0 -5.529661,0 0,7.627119 0,7.627118 5.529661,0 5.529661,0 0,16.779661 0,16.779661 -16.112288,-0.02688 C 16.301594,89.647551 12.147999,89.522405 11.114742,89.141747 l 0,1.5e-5 z"
     id="path3017"
     inkscape:connector-curvature="0" /></svg>