<?xml version="1.0" encoding="UTF-8" standalone="no"?>
<!-- Generator: Adobe Illustrator 16.0.0, SVG Export Plug-In . SVG Version: 6.00 Build 0)  -->

<svg
   xmlns:sketch="http://www.bohemiancoding.com/sketch/ns"
   xmlns:dc="http://purl.org/dc/elements/1.1/"
   xmlns:cc="http://creativecommons.org/ns#"
   xmlns:rdf="http://www.w3.org/1999/02/22-rdf-syntax-ns#"
   xmlns:svg="http://www.w3.org/2000/svg"
   xmlns="http://www.w3.org/2000/svg"
   xmlns:sodipodi="http://sodipodi.sourceforge.net/DTD/sodipodi-0.dtd"
   xmlns:inkscape="http://www.inkscape.org/namespaces/inkscape"
   version="1.1"
   id="Capa_1"
   x="0px"
   y="0px"
   width="90px"
   height="90px"
   viewBox="0 0 90 90"
   style="enable-background:new 0 0 90 90;"
   xml:space="preserve"
   inkscape:version="0.48.4 r9939"
   sodipodi:docname="facebook-login-button (copy).svg"><metadata
     id="metadata40"><rdf:RDF><cc:Work
         rdf:about=""><dc:format>image/svg+xml</dc:format><dc:type
           rdf:resource="http://purl.org/dc/dcmitype/StillImage" /><dc:title></dc:title></cc:Work></rdf:RDF></metadata><defs
     id="defs38" /><sodipodi:namedview
     pagecolor="#ffffff"
     bordercolor="#666666"
     borderopacity="1"
     objecttolerance="10"
     gridtolerance="10"
     guidetolerance="10"
     inkscape:pageopacity="0"
     inkscape:pageshadow="2"
     inkscape:window-width="1845"
     inkscape:window-height="1018"
     id="namedview36"
     showgrid="false"
     inkscape:zoom="2.6222222"
     inkscape:cx="44.999995"
     inkscape:cy="45"
     inkscape:window-x="75"
     inkscape:window-y="34"
     inkscape:window-maximized="0"
     inkscape:current-layer="Capa_1" /><g
     id="g3"
     style="fill:#dc4e41;fill-opacity:1"><path
       id="Facebook__x28_alt_x29_"
       d="M 90,15.001 C 90,7.119 82.884,0 75,0 L 15,0 C 7.116,0 0,7.119 0,15.001 L 0,74.999 C 0,82.881 7.116,90 15.001,90 c 5.720357,0.273673 5.901529,0 59.999,0 7.884,0 15,-7.119 15,-15.001 z"
       style="fill:#dc4e41;fill-opacity:1"
       inkscape:connector-curvature="0"
       sodipodi:nodetypes="sssssccss" /></g><g
     id="g6" /><g
     id="g8" /><g
     id="g10" /><g
     id="g12" /><g
     id="g14" /><g
     id="g16" /><g
     id="g18" /><g
     id="g20" /><g
     id="g22" /><g
     id="g24" /><g
     id="g26" /><g
     id="g28" /><g
     id="g30" /><g
     id="g32" /><g
     id="g34" /><g
     id="g3008"
     transform="matrix(3.0107858,0,0,3.0107858,-96.226256,-96.226268)"><path
       sketch:type="MSShapeGroup"
       id="Shape"
       d="m 42.906776,45.90678 0,2.4 3.97,0 c -0.16,1.03 -1.2,3.02 -3.97,3.02 -2.39,0 -4.34,-1.98 -4.34,-4.42 0,-2.44 1.95,-4.42 4.34,-4.42 1.36,0 2.27,0.58 2.79,1.08 l 1.9,-1.83 c -1.22,-1.14 -2.8,-1.83 -4.69,-1.83 -3.87,0 -7,3.13 -7,7 0,3.87 3.13,7 7,7 4.04,0 6.72,-2.84 6.72,-6.84 0,-0.46 -0.05,-0.81 -0.11,-1.16 l -6.61,0 0,0 z"
       inkscape:connector-curvature="0"
       style="fill:#ffffff" /><path
       sketch:type="MSShapeGroup"
       id="Shape-Copy"
       d="m 57.906776,45.90678 -2,0 0,-2 -2,0 0,2 -2,0 0,2 2,0 0,2 2,0 0,-2 2,0"
       inkscape:connector-curvature="0"
       style="fill:#ffffff" /></g></svg>