<?xml version="1.0" encoding="utf-8"?>
<!-- Generator: Adobe Illustrator 16.0.0, SVG Export Plug-In . SVG Version: 6.00 Build 0)  -->
<!DOCTYPE svg PUBLIC "-//W3C//DTD SVG 1.1//EN" "http://www.w3.org/Graphics/SVG/1.1/DTD/svg11.dtd">
<svg version="1.1" id="Layer_1" xmlns="http://www.w3.org/2000/svg" xmlns:xlink="http://www.w3.org/1999/xlink" x="0px" y="0px"
	 width="50px" height="50px" viewBox="0 0 50 50" enable-background="new 0 0 50 50" xml:space="preserve">
<g id="group">
	<g>
		<path fill="#EF5455" d="M32.937,37.097H16.736c-1.662,0-3.012-1.352-3.012-3.013v-0.997c0-3.239,2.534-5.902,5.77-6.062
			l0.365-0.018l0.222,0.291c1.222,1.602,2.953,2.521,4.75,2.521c1.795,0,3.529-0.92,4.751-2.521l0.22-0.29l0.365,0.017
			c3.242,0.151,5.781,2.814,5.781,6.062v0.997C35.949,35.745,34.598,37.097,32.937,37.097z M19.216,28.443
			c-2.327,0.286-4.103,2.263-4.103,4.644v0.997c0,0.895,0.728,1.623,1.623,1.623h16.2c0.895,0,1.622-0.729,1.622-1.623v-0.997
			c0-2.387-1.779-4.363-4.113-4.645c-1.473,1.764-3.499,2.768-5.615,2.768C22.714,31.21,20.688,30.207,19.216,28.443z"/>
		<path fill="#EF5455" d="M24.831,29.279c-3.257,0-5.906-3.234-5.906-7.21s2.648-7.21,5.906-7.21c3.257,0,5.907,3.235,5.907,7.21
			C30.736,26.045,28.087,29.279,24.831,29.279z M24.831,16.248c-2.49,0-4.516,2.611-4.516,5.821s2.026,5.82,4.516,5.82
			c2.49,0,4.516-2.611,4.516-5.82C29.347,18.859,27.32,16.248,24.831,16.248z"/>
	</g>
	<g>
		<path fill="#EF5455" d="M39.305,30.564c-0.383,0-0.694-0.312-0.694-0.695v-0.875c0-2.037-1.508-3.726-3.492-3.988
			c-0.251,0.297-0.521,0.572-0.806,0.82c-0.289,0.251-0.729,0.221-0.98-0.07c-0.252-0.29-0.221-0.728,0.069-0.98
			c0.308-0.269,0.596-0.576,0.855-0.916l0.222-0.29l0.364,0.017C37.734,23.723,40,26.099,40,28.994v0.874
			C40,30.253,39.689,30.564,39.305,30.564z"/>
		<path fill="#EF5455" d="M33.624,23.741c-0.136,0-0.271-0.04-0.393-0.122c-0.316-0.217-0.396-0.649-0.18-0.966
			c0.634-0.921,0.982-2.105,0.982-3.333c0-2.771-1.741-5.025-3.881-5.025c-0.384,0-0.694-0.311-0.694-0.695s0.311-0.695,0.694-0.695
			c2.907,0,5.271,2.878,5.271,6.415c0,1.506-0.436,2.969-1.226,4.12C34.063,23.635,33.846,23.741,33.624,23.741z"/>
	</g>
	<g>
		<path fill="#EF5455" d="M10.695,30.564c-0.384,0-0.695-0.312-0.695-0.695v-0.875c0-2.896,2.265-5.271,5.158-5.406l0.364-0.017
			l0.221,0.289c0.26,0.34,0.548,0.648,0.855,0.916c0.29,0.252,0.321,0.691,0.069,0.98c-0.251,0.291-0.691,0.321-0.98,0.069
			c-0.285-0.248-0.554-0.523-0.806-0.819c-1.984,0.261-3.493,1.952-3.493,3.988v0.875C11.389,30.253,11.079,30.564,10.695,30.564z"
			/>
		<path fill="#EF5455" d="M16.375,23.741c-0.221,0-0.438-0.105-0.574-0.301c-0.791-1.151-1.225-2.613-1.225-4.12
			c0-3.537,2.363-6.415,5.271-6.415c0.384,0,0.694,0.311,0.694,0.695s-0.311,0.695-0.694,0.695c-2.14,0-3.881,2.255-3.881,5.025
			c0,1.228,0.349,2.412,0.982,3.333c0.216,0.316,0.137,0.749-0.179,0.966C16.647,23.701,16.511,23.741,16.375,23.741z"/>
	</g>
</g>
</svg>
