<?xml version="1.0" encoding="utf-8"?>
<!-- Generator: Adobe Illustrator 16.0.0, SVG Export Plug-In . SVG Version: 6.00 Build 0)  -->
<!DOCTYPE svg PUBLIC "-//W3C//DTD SVG 1.1//EN" "http://www.w3.org/Graphics/SVG/1.1/DTD/svg11.dtd">
<svg version="1.1" id="Layer_1" xmlns="http://www.w3.org/2000/svg" xmlns:xlink="http://www.w3.org/1999/xlink" x="0px" y="0px"
	 width="50px" height="50px" viewBox="0 0 50 50" enable-background="new 0 0 50 50" xml:space="preserve">
<g>
	<g>
		<path fill="#5F6570" d="M40.238,1.191H9.763C7.136,1.191,5,3.327,5,5.952v38.097c0,2.625,2.136,4.761,4.763,4.761h30.475
			c2.626,0,4.762-2.136,4.762-4.761V5.954C45.002,3.328,42.866,1.191,40.238,1.191z M43.097,44.049c0,1.576-1.282,2.857-2.858,2.857
			H9.763c-1.576,0-2.857-1.281-2.857-2.857V5.954c0-1.576,1.281-2.857,2.857-2.857h30.475c1.575,0,2.856,1.281,2.856,2.857v38.095
			H43.097L43.097,44.049z"/>
		<path fill="#5F6570" d="M35.043,22.011H14.959c-0.483,0-0.874,0.392-0.874,0.875c0,0.483,0.39,0.875,0.874,0.875h20.083
			c0.483,0,0.874-0.392,0.874-0.875C35.918,22.403,35.526,22.011,35.043,22.011z"/>
		<path fill="#5F6570" d="M35.043,26H14.959c-0.483,0-0.874,0.393-0.874,0.876s0.39,0.874,0.874,0.874h20.083
			c0.483,0,0.874-0.391,0.874-0.874C35.916,26.39,35.526,26,35.043,26z"/>
		<path fill="#5F6570" d="M35.043,29.986H14.959c-0.483,0-0.874,0.393-0.874,0.876s0.39,0.875,0.874,0.875h20.083
			c0.483,0,0.874-0.392,0.874-0.875C35.918,30.379,35.526,29.986,35.043,29.986z"/>
		<path fill="#5F6570" d="M35.043,33.975H25c-0.482,0-0.875,0.392-0.875,0.875s0.392,0.876,0.875,0.876h10.042
			c0.483,0,0.872-0.393,0.872-0.876S35.526,33.975,35.043,33.975z"/>
		<path fill="#5F6570" d="M35.043,41.851h-7.03c-0.484,0-0.874,0.392-0.874,0.875c0,0.482,0.39,0.874,0.874,0.874h7.03
			c0.483,0,0.873-0.392,0.873-0.874C35.916,42.242,35.526,41.851,35.043,41.851z"/>
		<path fill="#5F6570" d="M25.976,18.166c0-1.655-1.906-3.888-4.479-4.541c1.075-0.723,1.816-2.15,1.816-3.436
			c0-1.813-1.468-3.284-3.283-3.284c-1.813,0-3.283,1.471-3.283,3.284c0,1.284,0.741,2.712,1.813,3.436
			c-2.569,0.652-4.476,2.887-4.476,4.541C14.086,20.122,25.976,20.122,25.976,18.166z M19.765,14.578H19.75l-0.543-0.624
			c0.266,0.094,0.537,0.151,0.824,0.151s0.559-0.056,0.824-0.15l-0.545,0.623h-0.013l1.403,3.389l-1.668,1.665l-1.667-1.665
			L19.765,14.578z"/>
	</g>
</g>
</svg>
