<?xml version="1.0" encoding="utf-8"?>
<!-- Generator: Adobe Illustrator 16.0.0, SVG Export Plug-In . SVG Version: 6.00 Build 0)  -->
<!DOCTYPE svg PUBLIC "-//W3C//DTD SVG 1.1//EN" "http://www.w3.org/Graphics/SVG/1.1/DTD/svg11.dtd">
<svg version="1.1" id="Layer_1" xmlns="http://www.w3.org/2000/svg" xmlns:xlink="http://www.w3.org/1999/xlink" x="0px" y="0px"
	 width="150px" height="150px" viewBox="0 0 150 150" enable-background="new 0 0 150 150" xml:space="preserve">
<g>
	<g>
		<g>
			<path fill="#F2F2F2" d="M123.322,70.522l-15.156-15.155V37.859c0-3.166-2.565-5.731-5.735-5.731
				c-3.163,0-5.729,2.565-5.729,5.731v6.044L85.418,32.619c-5.579-5.576-15.279-5.566-20.846,0.01L26.678,70.522
				c-2.237,2.241-2.237,5.868,0,8.106c2.238,2.241,5.872,2.241,8.109,0l37.891-37.894c1.234-1.228,3.409-1.228,4.638-0.004
				l37.897,37.898c1.123,1.121,2.589,1.678,4.053,1.678c1.469,0,2.936-0.557,4.057-1.678
				C125.56,76.391,125.56,72.764,123.322,70.522z"/>
			<path fill="#F2F2F2" d="M76.99,51.612c-1.1-1.101-2.883-1.101-3.98,0L39.677,84.935c-0.526,0.526-0.824,1.244-0.824,1.993v24.305
				c0,5.703,4.624,10.327,10.327,10.327h16.502V96.002h18.632v25.558h16.503c5.702,0,10.326-4.624,10.326-10.327V86.928
				c0-0.749-0.296-1.467-0.824-1.993L76.99,51.612z"/>
		</g>
	</g>
</g>
</svg>
